<ttFont>
<head>
    <!-- Most of this table will be recalculated by the compiler -->
    <tableVersion value="1.0"/>
    <fontRevision value="3.01"/>
    <checkSumAdjustment value="0x2416d211"/>
    <magicNumber value="0x5f0f3cf5"/>
    <flags value="00000000 00000011"/>
    <unitsPerEm value="1000"/>
    <created value="Mon Aug 14 17:40:57 2017"/>
    <modified value="Mon Aug 14 17:40:57 2017"/>
    <xMin value="-626"/>
    <yMin value="-627"/>
    <xMax value="2420"/>
    <yMax value="1135"/>
    <macStyle value="00000000 00000000"/>
    <lowestRecPPEM value="3"/>
    <fontDirectionHint value="2"/>
    <indexToLocFormat value="0"/>
    <glyphDataFormat value="0"/>
  </head>
          <CharString index="0">
            -39 callgsubr
            -38 -8 233 callsubr
            7 vlineto
            158 131 74 176 150 -99 82 -143 -150 -92 -90 -125 -11 1 -12 1 -11 hvcurveto
            203 27 hlineto
            27 11 19 26 25 10 -20 -23 -79 -83 -14 -77 vhcurveto
            -135 -203 hlineto
            -148 99 -92 158 144 92 79 140 vhcurveto
            return
          </CharString>
          <CharString index="1">
            204 -1 callgsubr
            -31 -18 -27 -36 -7 -8 1 2 -8 vhcurveto
            -155 vlineto
            -9 27 26 -3 26 hhcurveto
            120 85 85 147 121 -68 104 -130 -59 -46 -19 -32 -31 hvcurveto
            109 vlineto
            return
          </CharString>
          <CharString index="2">
            -90 callgsubr
            -102 callsubr
            return
          </CharString>
          <CharString index="3">
            rmoveto
            -102 callgsubr
            return
          </CharString>
          <CharString index="4">
            -99 callgsubr
            35 return
          </CharString>
          <CharString index="5">
            5 0 9 -1 11 vhcurveto
            -196 -13 hlineto
            -18 -8 -17 -22 -23 -9 18 19 vhcurveto
            return
          </CharString>
          <CharString index="6">
            50 37 37 48 50 -37 37 -50 -48 -37 -37 -50 -48 37 -37 48 hvcurveto
            return
          </CharString>
          <CharString index="7">
            64 -50 51 -64 -63 -50 -51 -64 -62 50 -50 63 64 50 50 62 vhcurveto
            return
          </CharString>
          <CharString index="8">
            -78 callsubr
            35 14 42 49 41 23 -28 return
          </CharString>
          <CharString index="9">
            -169 395 -96 callgsubr
            return
          </CharString>
          <CharString index="10">
            -96 callsubr
            63 135 return
          </CharString>
          <CharString index="11">
            -135 -120 -70 -156 208 callsubr
            116 104 return
          </CharString>
          <CharString index="12">
            rmoveto
            -27 -21 15 33 33 26 16 -28 callsubr
            -26 -37 vhcurveto
            return
          </CharString>
          <CharString index="13">
            -93 callgsubr
            267 vlineto
            46 21 return
          </CharString>
          <CharString index="14">
            rmoveto
            -49 -22 37 46 hvcurveto
            181 145 -181 vlineto
            -45 -24 -38 -50 vhcurveto
            return
          </CharString>
          <CharString index="15">
            52 163 -62 hlineto
            -43 -66 9 53 22 13 14 20 17 14 -11 -22 -5 0 -3 -1 -10 hvcurveto
            149 hlineto
            1 10 1 21 14 vvcurveto
            102 -66 74 -123 return
          </CharString>
          <CharString index="16">
            106 30 357 rmoveto
            -213 164 -151 201 200 163 151 213 213 -161 150 -202 -201 -164 -150 -213 vhcurveto
            503 hmoveto
            -94 -49 -63 -89 -91 -48 63 94 96 48 62 91 89 49 -62 -96 vhcurveto
            return
          </CharString>
          <CharString index="17">
            -72 callgsubr
            75 callsubr
            return
          </CharString>
          <CharString index="18">
            267 vlineto
            46 21 27 38 193 callgsubr
            -22 -22 -32 -6 -6 1 1 -3 vhcurveto
            -158 vlineto
            -7 27 20 -2 24 hhcurveto
            119 86 83 144 123 287 callsubr
            return
          </CharString>
          <CharString index="19">
            -55 callgsubr
            35 14 42 49 41 23 -28 return
          </CharString>
          <CharString index="20">
            -55 -24 42 52 hvcurveto
            170 161 -171 vlineto
            -51 -26 -42 -56 vhcurveto
            362 7 callsubr
            return
          </CharString>
          <CharString index="21">
            -1 -5 hhcurveto
            -40 -34 26 54 44 23 28 return
          </CharString>
          <CharString index="22">
            37 46 309 rmoveto
            -209 130 -107 177 177 143 107 209 210 callgsubr
            -399 vlineto
            -61 -27 -45 -67 -67 -24 45 61 210 callgsubr
            vlineto
            return
          </CharString>
          <CharString index="23">
            167 callsubr
            -156 -72 -91 -113 -45 callgsubr
            -43 vlineto
            -133 152 callsubr
            97 146 callsubr
            79 95 146 hvcurveto
            return
          </CharString>
          <CharString index="24" raw="1">
            800a330a 0b  
          </CharString>
          <CharString index="25">
            15 647 564 rmoveto
            -222 -299 hlineto
            -54 -30 -33 -49 -48 -31 33 54 vhcurveto
            299 -221 -327 vlineto
            -146 76 -95 130 85 56 41 49 32 vhcurveto
            return
          </CharString>
          <CharString index="26">
            -59 -52 41 65 8 1 8 2 7 hvcurveto
            167 -114 rlineto
            -9 -16 -20 -6 -23 hhcurveto
            return
          </CharString>
          <CharString index="27">
            rmoveto
            169 return
          </CharString>
          <CharString index="28">
            -65 callgsubr
            414 339 rmoveto
            169 return
          </CharString>
          <CharString index="29">
            57 -32 -18 callsubr
            5 callsubr
            -55 callgsubr
            return
          </CharString>
          <CharString index="30">
            204 571 return
          </CharString>
          <CharString index="31">
            -72 callsubr
            endchar
          </CharString>
          <CharString index="32">
            rmoveto
            -114 -31 30 40 28 20 23 38 hvcurveto
            15 162 -19 hlineto
            -36 -11 25 33 hvcurveto
            41 215 -55 vlineto
            -66 -24 -45 -54 -88 vvcurveto
            -39 6 -32 6 -19 vhcurveto
            201 callsubr
            return
          </CharString>
          <CharString index="33">
            hvcurveto
            -101 callgsubr
            return
          </CharString>
          <CharString index="34">
            -87 callgsubr
            414 339 rmoveto
            169 return
          </CharString>
          <CharString index="35">
            hhcurveto
            78 59 22 36 41 hvcurveto
            -121 -54 callgsubr
            return
          </CharString>
          <CharString index="36">
            -63 callgsubr
            190 187 hlineto
            return
          </CharString>
          <CharString index="37">
            -12 2 -14 2 -10 vhcurveto
            204 hlineto
            -2 10 -1 9 9 vvcurveto
            22 11 17 20 23 8 -18 -24 vhcurveto
            return
          </CharString>
          <CharString index="38">
            -89 callsubr
            -33 -28 hvcurveto
            110 377 169 return
          </CharString>
          <CharString index="39">
            rmoveto
            34 22 21 35 35 21 -21 -34 -35 -21 -21 -35 -35 -22 21 35 vhcurveto
            return
          </CharString>
          <CharString index="40">
            705 494 rmoveto
            -54 -43 -18 -29 -28 hvcurveto
            123 303 -50 vlineto
            -40 -9 -33 -34 -19 vhcurveto
            40 -28 -43 26 -64 hhcurveto
            -389 -280 -106 callgsubr
            return
          </CharString>
          <CharString index="41">
            -45 -44 vlineto
            -105 -79 -53 -104 -153 137 -19 71 hvcurveto
            -63 callgsubr
            return
          </CharString>
          <CharString index="42">
            -69 -34 46 56 -2 hvcurveto
            93 20 59 80 126 vvcurveto
            77 return
          </CharString>
          <CharString index="43">
            213 rmoveto
            -107 callsubr
            return
          </CharString>
          <CharString index="44">
            114 callsubr
            -389 hmoveto
            -182 103 -107 130 75 54 33 51 27 vhcurveto
            -67 vlineto
            -79 -38 -16 -45 -41 -25 15 29 -6 vhcurveto
            -218 hlineto
            -143 15 107 -93 184 hhcurveto
            211 77 138 149 hvcurveto
            554 123 callgsubr
            return
          </CharString>
          <CharString index="45">
            175 97 108 151 107 -45 69 -62 37 hvcurveto
            94 160 169 return
          </CharString>
          <CharString index="46">
            hvcurveto
            -100 callgsubr
            return
          </CharString>
          <CharString index="47">
            -351 -127 hlineto
            -13 11 -16 8 -19 6 rrcurveto
            4 vlineto
            59 25 36 51 70 vvcurveto
            112 -82 73 -134 -138 -86 -87 -123 vhcurveto
            187 hlineto
            21 14 17 23 22 14 -16 -24 -31 -27 -13 -31 vhcurveto
            return
          </CharString>
          <CharString index="48">
            -126 522 708 rmoveto
            -472 -708 472 177 -250 100 220 167 -220 88 250 hlineto
            return
          </CharString>
          <CharString index="49">
            33 -28 -44 19 -60 hhcurveto
            return
          </CharString>
          <CharString index="50">
            150 85 70 114 134 -104 45 -104 hvcurveto
            -44 hlineto
            -18 -12 7 16 14 13 8 18 hvcurveto
            return
          </CharString>
          <CharString index="51">
            -106 callgsubr
            endchar
          </CharString>
          <CharString index="52">
            -142 76 -112 145 55 43 16 27 30 vhcurveto
            247 callsubr
            return
          </CharString>
          <CharString index="53">
            rmoveto
            -165 85 -166 -85 rlineto
            -144 vlineto
            166 88 165 -88 rlineto
            return
          </CharString>
          <CharString index="54">
            vvcurveto
            69 -73 callsubr
            return
          </CharString>
          <CharString index="55">
            hhcurveto
            78 60 22 37 41 hvcurveto
            -122 -77 callsubr
            return
          </CharString>
          <CharString index="56">
            176 10 72 100 -10 callsubr
            return
          </CharString>
          <CharString index="57">
            91 539 hmoveto
            234 hlineto
            -258 708 rlineto
            -256 hlineto
            -259 -708 rlineto
            233 hlineto
            35 107 rlineto
            236 hlineto
            return
          </CharString>
          <CharString index="58">
            rmoveto
            -139 238 rlineto
            -202 hlineto
            134 -238 rlineto
            return
          </CharString>
          <CharString index="59">
            -42 callsubr
            130 179 hlineto
            return
          </CharString>
          <CharString index="60">
            6 callsubr
            34 44 return
          </CharString>
          <CharString index="61">
            rmoveto
            -42 -22 -18 -42 vhcurveto
            -88 120 88 hlineto
            42 22 -24 -36 hvcurveto
            -374 246 rmoveto
            -708 222 254 vlineto
            134 -254 rlineto
            244 hlineto
            -154 271 rlineto
            101 33 52 79 93 vvcurveto
            130 -91 102 -178 vhcurveto
            return
          </CharString>
          <CharString index="62">
            rmoveto
            -218 311 70 -76 vvcurveto
            -15 -11 -9 -23 -33 -31 10 39 -5 vhcurveto
            -213 hlineto
            -131 22 98 -71 163 hhcurveto
            150 87 72 100 hvcurveto
            217 -315 -59 70 vvcurveto
            16 10 8 21 30 28 -12 -36 10 vhcurveto
            207 hlineto
            114 -23 -86 88 -161 hhcurveto
            -157 -79 -78 -99 hvcurveto
            return
          </CharString>
          <CharString index="63">
            hhcurveto
            -42 -47 7 36 34 33 10 42 hvcurveto
            15 callsubr
            return
          </CharString>
          <CharString index="64">
            rmoveto
            -211 137 -149 223 183 100 107 85 49 vhcurveto
            222 -361 -157 177 vlineto
            -44 -33 -41 -18 -50 hhcurveto
            -109 -50 55 110 94 48 61 86 46 32 -17 -27 17 hvcurveto
            234 hlineto
            151 -21 -121 98 -188 hhcurveto
            -222 -136 -149 -211 hvcurveto
            return
          </CharString>
          <CharString index="65">
            -41 -6 vlineto
            -166 -122 -98 -167 -185 147 -99 188 -10 callgsubr
            return
          </CharString>
          <CharString index="66">
            -25 -17 18 26 hvcurveto
            236 82 -236 vlineto
            -26 -13 -18 -27 vhcurveto
            return
          </CharString>
          <CharString index="67">
            -73 248 callgsubr
            -180 119 -109 169 145 109 86 148 27 vhcurveto
            -235 hlineto
            -27 -8 -15 -17 -28 hhcurveto
            -34 -24 31 68 68 24 31 34 28 15 -17 -27 8 hvcurveto
            235 hlineto
            148 -27 -109 86 -145 hhcurveto
            59 callsubr
            hvcurveto
            return
          </CharString>
          <CharString index="68">
            vvcurveto
            122 -97 59 -120 -142 -99 -88 -117 -82 44 -48 50 -25 vhcurveto
            -66 -36 -57 -50 -93 vvcurveto
            -108 81 -69 111 49 44 14 28 27 vhcurveto
            -143 vlineto
            return
          </CharString>
          <CharString index="69">
            -150 -134 -73 -172 236 callgsubr
            36 30 52 hvcurveto
            return
          </CharString>
          <CharString index="70">
            -16 callsubr
            hvcurveto
            2 callsubr
            return
          </CharString>
          <CharString index="71">
            8 27 3 29 29 vvcurveto
            return
          </CharString>
          <CharString index="72">
            226 callgsubr
            vhcurveto
            -88 callgsubr
            return
          </CharString>
          <CharString index="73">
            -8 callsubr
            36 30 52 hvcurveto
            return
          </CharString>
          <CharString index="74">
            34 -6 28 -10 23 return
          </CharString>
          <CharString index="75">
            418 192 hmoveto
            276 hlineto
            82 402 82 -402 rlineto
            276 hlineto
            162 708 rlineto
            -239 hlineto
            -64 -446 -96 446 rlineto
            -242 hlineto
            -96 -446 -64 446 rlineto
            -239 hlineto
            return
          </CharString>
          <CharString index="76">
            vlineto
            -98 callgsubr
            return
          </CharString>
          <CharString index="77">
            -169 771 -51 vlineto
            -48 -12 -38 -56 -15 vhcurveto
            52 -56 -86 20 -91 hhcurveto
            -163 hlineto
            -98 callgsubr
            65 25 -34 -37 hvcurveto
            -40 vlineto
            -22 callgsubr
            return
          </CharString>
          <CharString index="78">
            63 45 -45 -62 -8 -1 -8 -1 -7 hvcurveto
            -167 113 rlineto
            11 18 20 6 23 hhcurveto
            return
          </CharString>
          <CharString index="79">
            36 hvcurveto
            38 -39 hlineto
            -32 -15 return
          </CharString>
          <CharString index="80">
            -157 -110 -87 -152 166 callsubr
            hvcurveto
            -123 -78 callgsubr
            return
          </CharString>
          <CharString index="81">
            143 hlineto
            -2 4 -1 5 5 vvcurveto
            12 9 12 16 16 10 -11 -17 -45 -46 -18 -58 -105 -37 60 70 88 69 48 89 vhcurveto
            return
          </CharString>
          <CharString index="82">
            -12 1 1 -9 vhcurveto
            -177 vlineto
            -1 16 12 0 7 hhcurveto
            return
          </CharString>
          <CharString index="83">
            -68 callsubr
            421 -68 rmoveto
            -64 -43 28 53 -8 hvcurveto
            107 20 30 81 87 vvcurveto
            70 112 -43 callgsubr
            -91 vhcurveto
            -664 -66 rmoveto
            -65 callsubr
            438 -32 vlineto
            -40 -1 -34 -18 -23 vhcurveto
            40 -38 -57 24 -71 hhcurveto
            -135 -101 -6 callgsubr
            1078 405 -80 callsubr
            -1450 -75 callgsubr
            57 50 14 29 37 hvcurveto
            -49 40 58 -23 77 -52 callsubr
            vlineto
            endchar
          </CharString>
          <CharString index="84">
            rmoveto
            -65 callsubr
            301 -94 vlineto
            20 -23 -31 12 -43 hhcurveto
            -113 -76 -90 -116 -38 8 -36 15 -31 hvcurveto
            -17 -15 -26 -15 -44 hhcurveto
            return
          </CharString>
          <CharString index="85">
            267 vlineto
            43 3 18 30 38 hhcurveto
            193 callgsubr
            -22 -22 -32 -6 -6 1 1 -3 hvcurveto
            84 callgsubr
            return
          </CharString>
          <CharString index="86">
            rmoveto
            51 33 36 56 58 32 -36 -51 -51 -32 -37 -58 -56 -33 37 51 vhcurveto
            return
          </CharString>
          <CharString index="87">
            -61 callgsubr
            35 30 51 45 26 -22 -42 17 hvcurveto
            -117 31 92 -71 141 -76 callsubr
          </CharString>
          <CharString index="88">
            175 callgsubr
            -129 vlineto
            -25 -3 -30 -29 -26 -8 21 34 vhcurveto
            32 -197 vlineto
            -1 -11 0 -11 -11 vvcurveto
            -154 91 -74 147 160 70 103 135 vhcurveto
            120 return
          </CharString>
          <CharString index="89">
            -54 37 -90 76 callgsubr
            77 callgsubr
            return
          </CharString>
          <CharString index="90">
            -21 callgsubr
            endchar
          </CharString>
          <CharString index="91">
            63 47 21 36 30 return
          </CharString>
          <CharString index="92">
            -29 callgsubr
            endchar
          </CharString>
          <CharString index="93">
            rmoveto
            -41 callsubr
            return
          </CharString>
          <CharString index="94">
            -176 93 callgsubr
            return
          </CharString>
          <CharString index="95">
            571 rmoveto
            473 75 callgsubr
            -52 -43 -13 -23 -34 hvcurveto
            14 -23 -28 8 -34 hhcurveto
            -54 -42 -17 -31 -28 hvcurveto
            -264 -241 41 callsubr
            46 31 -31 -44 -44 -31 -33 -46 hvcurveto
            return
          </CharString>
          <CharString index="96">
            7 12 0 1 16 hvcurveto
            return
          </CharString>
          <CharString index="97">
            189 callgsubr
            -91 81 -128 -114 -104 -66 -142 -59 callgsubr
            -80 hlineto
            -5 -29 -1 -28 -27 vvcurveto
            return
          </CharString>
          <CharString index="98">
            -5 225 28 rmoveto
            -142 -298 rlineto
            243 hlineto
            361 834 rlineto
            -245 hlineto
            -99 -286 -106 286 rlineto
            -247 hlineto
            return
          </CharString>
          <CharString index="99">
            -13 callsubr
            vhcurveto
            -61 callgsubr
            return
          </CharString>
          <CharString index="100">
            270 571 rmoveto
            76 169 return
          </CharString>
          <CharString index="101">
            571 76 169 return
          </CharString>
          <CharString index="102">
            14 -42 -35 hvcurveto
            -29 168 29 vlineto
            return
          </CharString>
          <CharString index="103">
            -147 119 227 -31 hlineto
            -46 -10 -42 -70 vhcurveto
            259 -220 197 callgsubr
            414 339 rmoveto
            169 return
          </CharString>
          <CharString index="104">
            -75 callsubr
            433 382 -80 callsubr
            -1269 -169 494 -50 vlineto
            -76 35 -39 46 -15 vhcurveto
            -4 vlineto
            -41 -20 -28 -30 -14 -41 -13 -32 -29 -23 -43 -1 rrcurveto
            -42 -1 -31 18 26 callgsubr
            -125 107 -63 125 3 vhcurveto
            60 1 50 17 39 31 return
          </CharString>
          <CharString index="105">
            38 callgsubr
            61 callgsubr
            return
          </CharString>
          <CharString index="106">
            819 1512 -64 callgsubr
            -1523 -169 1243 -90 -267 -163 vlineto
            -39 -15 -21 -31 -24 -23 16 35 vhcurveto
            10 vlineto
            136 -124 57 -105 -93 -56 -37 -57 -33 vhcurveto
            -103 callsubr
            15 42 50 38 18 -25 -43 4 vhcurveto
            -111 10 82 -74 158 hhcurveto
            52 callgsubr
            hvcurveto
            68 -308 61 callgsubr
            return
          </CharString>
          <CharString index="107">
            -106 callgsubr
            616 -6 87 callgsubr
            -1561 -89 callgsubr
            40 16 -30 -31 1 vhcurveto
            -1 -8 0 -8 -8 43 callgsubr
          </CharString>
          <CharString index="108">
            vvcurveto
            49 callgsubr
            vhcurveto
            167 callgsubr
            return
          </CharString>
          <CharString index="109">
            -100 196 267 vlineto
            101 callsubr
            return
          </CharString>
          <CharString index="110">
            208 callsubr
            116 285 callgsubr
            -322 61 callgsubr
            endchar
          </CharString>
          <CharString index="111">
            96 146 callsubr
            return
          </CharString>
          <CharString index="112">
            175 -11 callsubr
            return
          </CharString>
          <CharString index="113">
            49 159 -16 hlineto
            -61 -26 return
          </CharString>
          <CharString index="114">
            264 -80 callsubr
            return
          </CharString>
          <CharString index="115">
            97 callsubr
            -49 callgsubr
            return
          </CharString>
          <CharString index="116">
            28 callgsubr
            52 hvcurveto
            return
          </CharString>
          <CharString index="117">
            hlineto
            -36 callsubr
            return
          </CharString>
          <CharString index="118">
            -84 callsubr
            endchar
          </CharString>
          <CharString index="119">
            -4 -16 -7 -15 -10 rrcurveto
            75 -60 -102 43 -147 51 callgsubr
            28 -4 24 -8 21 hvcurveto
            return
          </CharString>
          <CharString index="120">
            -35 rmoveto
            -147 72 -11 vlineto
            -52 -20 -23 -35 vhcurveto
            -78 vlineto
            114 51 80 96 42 -8 46 -18 47 hvcurveto
            return
          </CharString>
          <CharString index="121">
            -78 callgsubr
            hlineto
            return
          </CharString>
          <CharString index="122">
            -88 callgsubr
            -132 return
          </CharString>
          <CharString index="123">
            -169 773 -46 callgsubr
            -44 -38 -10 -19 -31 hvcurveto
            -191 hlineto
            241 callgsubr
            -71 -170 92 callgsubr
            44 36 28 52 hvcurveto
            85 hlineto
            -1 -10 0 -11 -11 vvcurveto
            return
          </CharString>
          <CharString index="124">
            205 274 callsubr
          </CharString>
          <CharString index="125">
            rmoveto
            -27 -21 16 33 32 245 callsubr
            -38 hlineto
            -33 298 callgsubr
            return
          </CharString>
          <CharString index="126">
            -61 -20 -46 -104 vhcurveto
            -63 return
          </CharString>
          <CharString index="127">
            -33 callgsubr
            213 vmoveto
            return
          </CharString>
          <CharString index="128">
            20 540 rmoveto
            -121 78 -59 103 102 77 59 121 122 -77 59 -102 -103 -78 -59 -122 vhcurveto
            179 52 rmoveto
            23 14 -17 -35 -34 -14 -17 -23 -22 -12 17 34 35 12 17 22 hvcurveto
            -43 -592 rmoveto
            212 hlineto
            373 711 rlineto
            -212 hlineto
            -12 -540 rmoveto
            -122 78 -59 102 103 76 59 122 122 -76 59 -103 -102 -78 -59 -122 vhcurveto
            179 52 rmoveto
            22 14 -18 -34 -35 -14 -17 -22 -23 -12 17 35 34 12 18 23 hvcurveto
            return
          </CharString>
          <CharString index="129">
            129 callsubr
            vhcurveto
            108 callgsubr
            endchar
          </CharString>
          <CharString index="130">
            -80 callsubr
            -686 -169 347 -41 -6 vlineto
            -166 -122 -98 -167 -117 59 -83 91 -45 hvcurveto
            -111 -149 rlineto
            63 callgsubr
            -98 131 rlineto
            90 31 47 64 92 vvcurveto
            102 -68 69 -122 -107 -72 -48 -90 -12 2 -16 3 -15 vhcurveto
            145 callgsubr
          </CharString>
          <CharString index="131">
            217 hlineto
            119 164 rlineto
            -124 14 callsubr
            endchar
          </CharString>
          <CharString index="132">
            -146 72 -12 vlineto
            -51 -21 -23 -34 vhcurveto
            -79 vlineto
            113 51 80 97 42 -7 46 -18 46 hvcurveto
            return
          </CharString>
          <CharString index="133">
            -21 -10 8 14 15 12 8 18 hvcurveto
            191 187 return
          </CharString>
          <CharString index="134">
            221 327 hlineto
            146 -76 95 -130 -85 -56 -41 -49 -32 vhcurveto
            86 -222 -564 222 299 vlineto
            54 30 33 49 48 31 -33 -54 vhcurveto
            return
          </CharString>
          <CharString index="135">
            506 441 520 125 callgsubr
            -1210 -103 callgsubr
            return
          </CharString>
          <CharString index="136">
            rmoveto
            28 -23 22 -28 -27 -22 -22 -28 -27 22 -22 27 28 23 22 27 vhcurveto
            endchar
          </CharString>
          <CharString index="137">
            131 callgsubr
            4 -73 39 -52 58 -31 -109 -147 rcurveline
            63 callgsubr
            -110 146 rlineto
            52 32 28 51 65 vvcurveto
            134 -104 45 -104 vhcurveto
            165 callsubr
          </CharString>
          <CharString index="138">
            -169 75 -29 vlineto
            -75 35 -39 47 -16 vhcurveto
            -4 vlineto
            -46 -18 -45 -48 -73 vvcurveto
            return
          </CharString>
          <CharString index="139">
            -31 vlineto
            66 callgsubr
            return
          </CharString>
          <CharString index="140">
            rmoveto
            -29 callsubr
            return
          </CharString>
          <CharString index="141">
            -15 894 -64 callgsubr
            -905 45 callgsubr
            166 232 rlineto
            -7 24 26 113 callgsubr
            return
          </CharString>
          <CharString index="142">
            32 callsubr
            vvcurveto
            return
          </CharString>
          <CharString index="143">
            -164 488 564 rmoveto
            -465 -184 212 hlineto
            -215 -206 rlineto
            -174 478 184 -235 vlineto
            225 206 rlineto
            return
          </CharString>
          <CharString index="144">
            rmoveto
            -65 -28 42 62 hvcurveto
            46 vlineto
            167 -101 rlineto
            -29 -11 -23 -20 -40 hhcurveto
            return
          </CharString>
          <CharString index="145">
            hhcurveto
            240 callgsubr
            hvcurveto
            -92 callsubr
            return
          </CharString>
          <CharString index="146">
            136 callsubr
            -13 23 37 -3 vhcurveto
            -1 2 rlineto
            114 -15 -97 92 -170 -40 callgsubr
            92 70 30 46 48 hvcurveto
            -22 33 44 -12 59 hhcurveto
            return
          </CharString>
          <CharString index="147">
            -104 callsubr
            631 305 -80 callsubr
            return
          </CharString>
          <CharString index="148">
            -106 callgsubr
            660 -11 -56 callgsubr
            return
          </CharString>
          <CharString index="149">
            -67 45 502 rmoveto
            216 hlineto
            29 5 33 32 19 18 -13 -36 -56 -50 1 -18 1 vhcurveto
            -36 -179 37 hlineto
            61 20 -21 -36 -30 -18 -19 -24 -42 -15 26 47 3 hvcurveto
            -216 hlineto
            -184 3 113 -72 164 hhcurveto
            154 93 87 129 92 -51 49 -69 26 hvcurveto
            4 vlineto
            43 14 64 45 104 vvcurveto
            114 -86 90 -162 -163 -91 -86 -159 -4 vhcurveto
            endchar
          </CharString>
          <CharString index="150">
            -169 492 148 callgsubr
            -319 67 -7 callgsubr
            251 147 rmoveto
            -43 -24 27 36 37 26 27 42 40 26 -25 -37 1 hvcurveto
            -38 -29 -27 -39 vhcurveto
            endchar
          </CharString>
          <CharString index="151">
            -27 callsubr
            hlineto
            return
          </CharString>
          <CharString index="152">
            hhcurveto
            -54 -43 -19 -31 -28 hvcurveto
            -264 -239 -106 callgsubr
            return
          </CharString>
          <CharString index="153">
            -10 245 276 -21 callsubr
            158 -373 rmoveto
            205 hlineto
            -114 152 rlineto
            81 41 52 76 104 vvcurveto
            137 -87 79 -107 29 vhcurveto
            50 246 169 -690 128 callsubr
            -107 55 -77 84 -40 vhcurveto
            294 callsubr
            rlineto
            return
          </CharString>
          <CharString index="154">
            -6 332 307 -93 callsubr
            612 7 callsubr
            -955 90 callsubr
            16 -31 -31 vhcurveto
            207 hlineto
            131 -67 104 -131 -59 -46 -19 -32 -31 vhcurveto
            109 vlineto
            return
          </CharString>
          <CharString index="155">
            -169 77 219 callgsubr
            return
          </CharString>
          <CharString index="156">
            34 -33 -47 18 -55 hhcurveto
            return
          </CharString>
          <CharString index="157">
            -115 133 callgsubr
            return
          </CharString>
          <CharString index="158">
            164 129 94 163 137 -87 79 -107 29 hvcurveto
            50 246 169 return
          </CharString>
          <CharString index="159">
            189 callgsubr
            -91 81 -128 -24 -24 -3 -6 -22 vhcurveto
            -734 -169 588 hlineto
            -1 -9 -1 -11 -10 vvcurveto
            -59 callgsubr
            -353 hlineto
            -135 -120 -70 -156 -147 117 -78 121 116 104 63 135 hvcurveto
            endchar
          </CharString>
          <CharString index="160">
            rmoveto
            -105 -244 rlineto
            133 hlineto
            140 244 rlineto
            -413 hmoveto
            -80 -244 rlineto
            133 hlineto
            115 244 rlineto
            endchar
          </CharString>
          <CharString index="161">
            164 hlineto
            49 8 16 20 36 59 56 -67 96 hhcurveto
            116 91 76 188 29 hvcurveto
            -166 hlineto
            -50 -7 -16 -19 -36 -58 -57 67 -96 hhcurveto
            -116 -89 -76 -188 -30 hvcurveto
            return
          </CharString>
          <CharString index="162">
            -256 667 326 rmoveto
            -178 hlineto
            -55 -39 -40 -93 77 callsubr
            return
          </CharString>
          <CharString index="163">
            -77 callgsubr
            endchar
          </CharString>
          <CharString index="164">
            19 callsubr
            -202 hlineto
            8 callsubr
            return
          </CharString>
          <CharString index="165">
            hhcurveto
            89 callsubr
          </CharString>
          <CharString index="166">
            -169 -119 -109 -180 return
          </CharString>
          <CharString index="167">
            270 callgsubr
            656 91 callsubr
            -98 -98 -48 -115 -33 hvcurveto
            -24 -10 -21 -18 -33 hhcurveto
            return
          </CharString>
          <CharString index="168">
            -169 558 -69 vlineto
            -40 -16 -30 -27 -18 -35 rrcurveto
            -4 hlineto
            57 -30 -55 38 -88 76 callgsubr
            -159 97 -100 5 callsubr
            176 vlineto
            -1 -10 -11 0 -5 hhcurveto
            -40 -34 17 63 44 23 28 41 49 14 -43 -34 hvcurveto
            -36 168 36 vlineto
            34 14 43 49 36 22 -26 -42 vhcurveto
            return
          </CharString>
          <CharString index="169">
            26 35 -15 -42 -28 -18 -25 -40 -41 -22 27 33 -4 hvcurveto
            -190 -294 198 108 hlineto
            -26 31 44 -14 50 hhcurveto
            96 81 62 107 47 -15 35 -25 25 hvcurveto
            return
          </CharString>
          <CharString index="170">
            -67 vlineto
            -52 -14 -35 -31 -23 -41 rrcurveto
            return
          </CharString>
          <CharString index="171">
            7 23 5 25 28 vvcurveto
            135 -92 55 -88 -67 -48 -29 -43 -23 vhcurveto
            -3 hlineto
            43 -23 -42 29 -67 hhcurveto
            -91 -93 -55 -135 -121 75 -77 134 hvcurveto
            26 137 hlineto
            -2 -7 -9 0 -3 hhcurveto
            -30 -27 13 48 34 18 21 32 36 11 -32 -27 hvcurveto
            -27 130 27 vlineto
            27 10 32 37 27 17 -21 -32 vhcurveto
            return
          </CharString>
          <CharString index="172">
            141 callsubr
            123 callsubr
            return
          </CharString>
          <CharString index="173">
            57 callsubr
            304 253 callgsubr
            -34 callsubr
            return
          </CharString>
          <CharString index="174">
            79 vlineto
            39 4 68 70 66 4 -68 -39 vhcurveto
            -35 -83 48 callsubr
            -76 return
          </CharString>
          <CharString index="175">
            -648 rmoveto
            -100 callsubr
            return
          </CharString>
          <CharString index="176">
            -50 -37 -31 -57 -76 vvcurveto
            -149 104 -89 151 136 103 73 130 8 vhcurveto
            return
          </CharString>
          <CharString index="177">
            -154 539 -64 callgsubr
            -550 46 callgsubr
            85 130 5 0 9 -1 12 vhcurveto
            -195 -33 hlineto
            -19 -8 -16 231 callsubr
            vlineto
            180 10 44 120 139 vvcurveto
            26 vlineto
            return
          </CharString>
          <CharString index="178">
            55 callgsubr
            -91 -169 77 -571 hlineto
            return
          </CharString>
          <CharString index="179">
            -199 hlineto
            -32 -23 -19 -30 -27 -29 18 48 vhcurveto
            313 122 -51 vlineto
            -31 -19 -17 -39 8 vhcurveto
            -182 vlineto
            191 -28 65 92 153 vvcurveto
            56 return
          </CharString>
          <CharString index="180">
            vlineto
            51 -27 -53 165 callgsubr
          </CharString>
          <CharString index="181">
            -95 60 -53 60 -20 vhcurveto
            -4 vlineto
            return
          </CharString>
          <CharString index="182">
            52 callgsubr
            vhcurveto
            return
          </CharString>
          <CharString index="183">
            28 94 -305 17 callsubr
          </CharString>
          <CharString index="184">
            -42 -47 7 36 -35 callsubr
            return
          </CharString>
          <CharString index="185">
            141 200 callsubr
            return
          </CharString>
          <CharString index="186">
            218 hlineto
            138 290 callgsubr
            -106 callsubr
            endchar
          </CharString>
          <CharString index="187">
            -129 712 -64 callgsubr
            -723 -169 vlineto
            491 -629 rmoveto
            232 277 rlineto
            269 -376 -94 vlineto
            -44 -16 -23 -31 -32 -15 23 44 vhcurveto
            94 -205 -100 vlineto
            -140 84 -99 169 124 78 65 100 25 vhcurveto
            94 hlineto
            -353 -372 rlineto
            return
          </CharString>
          <CharString index="188">
            rmoveto
            431 147 -431 hlineto
            endchar
          </CharString>
          <CharString index="189">
            -100 -34 callgsubr
            return
          </CharString>
          <CharString index="190">
            hhcurveto
            7 12 0 1 16 hvcurveto
            100 callgsubr
          </CharString>
          <CharString index="191">
            332 454 rmoveto
            -31 15 -26 26 35 vvcurveto
            28 21 23 32 vhcurveto
            32 -1 18 -25 -28 vvcurveto
            -31 return
          </CharString>
          <CharString index="192">
            46 724 353 rmoveto
            57 -45 45 -57 -56 -45 -45 -57 -55 45 -45 56 57 45 45 55 vhcurveto
            return
          </CharString>
          <CharString index="193">
            61 345 708 rmoveto
            -295 -264 -50 -176 50 -268 78 callgsubr
            70 130 176 -130 70 269 callgsubr
          </CharString>
          <CharString index="194">
            -194 hlineto
            -53 -35 -36 -59 -57 -33 34 48 56 46 30 54 vhcurveto
            160 222 hlineto
            endchar
          </CharString>
          <CharString index="195">
            214 -106 callgsubr
            return
          </CharString>
          <CharString index="196">
            158 80 95 146 hvcurveto
            76 callsubr
          </CharString>
          <CharString index="197">
            -26 callgsubr
            42 return
          </CharString>
          <CharString index="198">
            63 callsubr
            -3 hlineto
            163 callsubr
            return
          </CharString>
          <CharString index="199">
            169 callgsubr
            107 20 return
          </CharString>
          <CharString index="200">
            -116 28 10 rmoveto
            517 179 -229 hlineto
            116 73 106 116 135 vvcurveto
            106 -61 108 -182 -137 -126 -75 -194 -7 vhcurveto
            215 hlineto
            66 12 17 25 19 16 -11 -39 -90 -143 -118 -141 -106 vhcurveto
            endchar
          </CharString>
          <CharString index="201">
            239 callsubr
            -96 395 -52 callgsubr
            return
          </CharString>
          <CharString index="202">
            -20 332 721 rmoveto
            211 89 -152 -206 -207 -89 -152 -211 -212 -88 152 207 206 88 152 212 hvcurveto
            -210 vmoveto
            -73 -9 -70 -78 -79 9 -70 73 72 9 70 79 78 -9 70 -72 hvcurveto
            endchar
          </CharString>
          <CharString index="203">
            146 839 -64 callgsubr
            -850 32 callgsubr
            return
          </CharString>
          <CharString index="204">
            -22 callgsubr
            78 callsubr
            return
          </CharString>
          <CharString index="205">
            -134 vlineto
            -36 callsubr
            return
          </CharString>
          <CharString index="206">
            rmoveto
            163 hlineto
            23 1 6 11 11 hhcurveto
            6 3 -3 -5 -16 -13 -18 -34 -17 hvcurveto
            -135 -70 rlineto
            -122 345 125 -170 vlineto
            40 15 rlineto
            99 37 41 32 48 vvcurveto
            49 -41 59 -119 -123 -74 -62 -86 -6 vhcurveto
            endchar
          </CharString>
          <CharString index="207">
            vlineto
            -80 -43 -63 return
          </CharString>
          <CharString index="208">
            46 21 27 38 41 16 -31 return
          </CharString>
          <CharString index="209">
            hlineto
            -3 -15 -1 -15 -17 vvcurveto
            -133 97 146 callsubr
            79 95 146 vhcurveto
            return
          </CharString>
          <CharString index="210">
            rmoveto
            161 callsubr
            203 -6 callsubr
            -999 140 callsubr
            -198 116 -108 186 291 callgsubr
            vhcurveto
            -1 9 11 -1 10 hhcurveto
            return
          </CharString>
          <CharString index="211">
            -47 -39 -25 -58 -64 vvcurveto
            -112 72 -100 134 54 47 17 34 32 vhcurveto
            -98 187 440 vlineto
            36 43 19 55 68 vvcurveto
            -193 hlineto
            -51 -38 -36 -66 -62 -34 34 46 54 46 28 55 vhcurveto
            168 222 hlineto
            endchar
          </CharString>
          <CharString index="212">
            571 77 169 return
          </CharString>
          <CharString index="213">
            rmoveto
            32 24 24 34 32 24 -24 -32 -33 -24 -23 -32 272 callsubr
          </CharString>
          <CharString index="214">
            266 40 callsubr
            return
          </CharString>
          <CharString index="215">
            252 rmoveto
            -32 -23 150 callsubr
            return
          </CharString>
          <CharString index="216">
            220 212 -220 hlineto
            return
          </CharString>
          <CharString index="217">
            vlineto
            -51 27 53 -33 75 hhcurveto
            130 103 107 182 182 -103 107 -130 -75 -53 -33 -51 -27 hvcurveto
            163 -205 114 callsubr
            endchar
          </CharString>
          <CharString index="218">
            -181 -27 callgsubr
          </CharString>
          <CharString index="219">
            104 164 169 -960 -169 599 -82 vlineto
            -42 -12 -42 -26 -33 -52 rrcurveto
            178 callsubr
            return
          </CharString>
          <CharString index="220">
            rmoveto
            32 192 callgsubr
            33 vhcurveto
            return
          </CharString>
          <CharString index="221">
            rmoveto
            -62 -36 -33 -46 -46 -36 33 62 62 36 33 46 46 36 -33 -62 vhcurveto
            return
          </CharString>
          <CharString index="222">
            -134 4 callsubr
            80 95 146 return
          </CharString>
          <CharString index="223">
            -106 vlineto
            49 callsubr
            return
          </CharString>
          <CharString index="224">
            rmoveto
            -273 -127 vlineto
            589 268 rmoveto
            176 -613 vlineto
            -339 -708 rlineto
            241 hlineto
            45 97 rlineto
            204 -97 462 177 -240 103 210 167 -210 85 hlineto
            endchar
          </CharString>
          <CharString index="225">
            -169 395 -110 hlineto
            139 callgsubr
            return
          </CharString>
          <CharString index="226">
            rmoveto
            -223 134 rlineto
            1 423 -53 vlineto
            -87 -5 -68 -30 -45 -47 rrcurveto
            548 135 -80 callsubr
            -1036 -16 callgsubr
            166 49 42 13 22 35 vhcurveto
            return
          </CharString>
          <CharString index="227">
            197 callgsubr
            -648 -43 18 callsubr
            return
          </CharString>
          <CharString index="228">
            -1 -10 -1 -10 -10 vvcurveto
            -9 1 -13 2 -13 vhcurveto
            183 hlineto
            -2 9 -2 9 12 vvcurveto
            27 15 13 return
          </CharString>
          <CharString index="229">
            -86 -31 -51 -68 -2 vhcurveto
            -42 -1 -31 18 141 callsubr
            return
          </CharString>
          <CharString index="230">
            46 130 callgsubr
            hlineto
            return
          </CharString>
          <CharString index="231">
            -52 -37 -28 -59 -68 vvcurveto
            -109 69 -97 129 52 46 16 33 32 vhcurveto
            -105 187 114 callgsubr
            202 230 hlineto
            return
          </CharString>
          <CharString index="232">
            -682 -69 737 rmoveto
            338 -176 -25 16 -167 171 callgsubr
            return
          </CharString>
          <CharString index="233">
            rmoveto
            -192 87 -11 vlineto
            -52 -21 -8 -34 vhcurveto
            -78 vlineto
            209 -1 228 113 -69 hvcurveto
            endchar
          </CharString>
          <CharString index="234">
            808 rmoveto
            29 13 22 31 32 10 -28 -26 -2 vhcurveto
            172 hlineto
            115 12 -58 94 -122 hhcurveto
            -103 -43 -62 -64 -12 hvcurveto
            -77 105 -63 18 -125 1 rrcurveto
            -56 -163 59 hlineto
            return
          </CharString>
          <CharString index="235">
            -169 243 -51 vlineto
            -105 -30 -85 -79 -135 vvcurveto
            return
          </CharString>
          <CharString index="236">
            106 -67 103 45 38 12 23 25 return
          </CharString>
          <CharString index="237">
            -169 214 -48 return
          </CharString>
          <CharString index="238">
            220 callgsubr
            131 125 rlineto
            -126 197 274 callsubr
          </CharString>
          <CharString index="239">
            -44 hlineto
            -18 -12 7 16 14 13 8 18 hvcurveto
            190 187 hlineto
            return
          </CharString>
          <CharString index="240">
            74 callsubr
            -48 -14 -63 -43 -86 vvcurveto
            -132 120 -56 156 92 74 30 52 51 vhcurveto
            -52 46 71 -30 296 callgsubr
            return
          </CharString>
          <CharString index="241">
            280 225 rmoveto
            -29 -22 16 28 31 26 17 34 hvcurveto
            45 -32 hlineto
            -33 -14 -27 -40 vhcurveto
            return
          </CharString>
          <CharString index="242">
            rmoveto
            -100 callsubr
            -15 329 rmoveto
            return
          </CharString>
          <CharString index="243">
            183 callsubr
            -32 return
          </CharString>
          <CharString index="244">
            2 callsubr
            -31 vhcurveto
            1 hlineto
            -132 2 77 -105 142 hhcurveto
            2 callgsubr
          </CharString>
          <CharString index="245">
            69 callsubr
            endchar
          </CharString>
          <CharString index="246">
            -43 -45 162 callsubr
            -116 94 -43 76 -5 hvcurveto
            -2 28 20 0 21 hhcurveto
            return
          </CharString>
          <CharString index="247">
            130 callsubr
            vlineto
            -75 -33 -42 -97 vhcurveto
            -19 -109 hlineto
            return
          </CharString>
          <CharString index="248">
            36 vvcurveto
            35 28 16 28 vhcurveto
            return
          </CharString>
          <CharString index="249">
            vvcurveto
            -74 49 -33 56 -12 vhcurveto
            -4 vlineto
            -63 -15 -43 -50 -63 vvcurveto
            -126 120 -44 114 44 57 7 15 35 vhcurveto
            149 vlineto
            -4 -14 -45 -11 -45 hhcurveto
            -31 return
          </CharString>
          <CharString index="250">
            vhcurveto
            414 339 -80 callsubr
            return
          </CharString>
          <CharString index="251">
            -169 291 -45 -44 vlineto
            -105 -79 -53 -104 -153 137 -19 71 hvcurveto
            -66 callgsubr
            return
          </CharString>
          <CharString index="252">
            222 225 hlineto
            139 -225 rlineto
            265 hlineto
            -216 280 211 284 rlineto
            -258 hlineto
            -141 -211 rlineto
            387 -222 vlineto
            endchar
          </CharString>
          <CharString index="253">
            -86 145 158 return
          </CharString>
          <CharString index="254">
            70 hmoveto
            222 379 83 185 -81 hlineto
            7 36 23 10 51 -6 rrcurveto
            189 vlineto
            -191 17 -112 -86 -2 -160 rrcurveto
            -60 -185 60 hlineto
            return
          </CharString>
          <CharString index="255">
            -98 callgsubr
            91 -322 -77 callsubr
            hlineto
            endchar
          </CharString>
          <CharString index="256">
            hhcurveto
            -175 -91 257 callsubr
            94 -108 180 return
          </CharString>
          <CharString index="257">
            13 26 24 17 16 33 hvcurveto
            51 163 -35 hlineto
            -46 -14 return
          </CharString>
          <CharString index="258">
            -26 callsubr
            130 179 hlineto
            return
          </CharString>
          <CharString index="259">
            -113 -66 291 callsubr
            return
          </CharString>
          <CharString index="260">
            -132 -55 -43 -19 return
          </CharString>
          <CharString index="261">
            rmoveto
            -31 -17 23 44 hvcurveto
            6 vlineto
            84 -60 98 198 callsubr
            680 -90 -268 -156 vlineto
            -44 -14 -23 -32 vhcurveto
            return
          </CharString>
          <CharString index="262">
            -16 callgsubr
            165 73 59 30 44 40 vhcurveto
            -45 40 61 -29 86 hhcurveto
            162 78 101 133 hvcurveto
            217 return
          </CharString>
          <CharString index="263">
            -61 -28 47 57 hvcurveto
            48 vlineto
            179 -101 rlineto
            -30 -15 -30 -21 -45 hhcurveto
            101 171 rmoveto
            -188 109 rlineto
            188 hlineto
            277 hmoveto
            169 return
          </CharString>
          <CharString index="264">
            hhcurveto
            204 callsubr
            hvcurveto
            57 vlineto
            endchar
          </CharString>
          <CharString index="265">
            vlineto
            -23 -3 -29 -28 -24 -7 19 20 vhcurveto
            23 -171 vlineto
            -1 -10 0 -10 -10 vvcurveto
            -127 77 -63 126 146 65 92 126 vhcurveto
            return
          </CharString>
          <CharString index="266">
            rmoveto
            79 175 rlineto
            -201 hlineto
            -77 -175 77 -175 rlineto
            201 hlineto
            return
          </CharString>
          <CharString index="267">
            -62 35 64 -41 88 hhcurveto
            64 callgsubr
            return
          </CharString>
          <CharString index="268">
            43 32 11 19 22 hvcurveto
            -125 return
          </CharString>
          <CharString index="269">
            vlineto
            -105 -79 -53 -112 return
          </CharString>
          <CharString index="270">
            57 -32 273 callsubr
            return
          </CharString>
          <CharString index="271">
            166 hlineto
            21 18 -8 -21 -19 -16 -10 -24 hvcurveto
            -69 -18 hlineto
            -180 118 -63 112 70 47 22 34 32 vhcurveto
            -101 vlineto
            endchar
          </CharString>
          <CharString index="272">
            132 callsubr
            endchar
          </CharString>
          <CharString index="273">
            -160 129 callsubr
            return
          </CharString>
          <CharString index="274">
            137 -54 116 -175 return
          </CharString>
          <CharString index="275">
            hmoveto
            222 564 -222 return
          </CharString>
          <CharString index="276">
            580 571 rmoveto
            return
          </CharString>
          <CharString index="277">
            16 709 -64 callgsubr
            -720 -169 432 -61 -16 vlineto
            -156 -110 -87 -150 -74 27 -65 49 -40 hvcurveto
            return
          </CharString>
          <CharString index="278">
            705 503 rmoveto
            -54 -43 -17 -31 -28 hvcurveto
            116 404 -100 -44 vlineto
            -39 -37 -6 -12 -33 hvcurveto
            31 -28 -41 19 -57 hhcurveto
            return
          </CharString>
          <CharString index="279">
            -90 92 -33 vhcurveto
            -147 -194 rlineto
            218 hlineto
            return
          </CharString>
          <CharString index="280">
            -19 -24 -10 -30 -35 vvcurveto
            return
          </CharString>
          <CharString index="281">
            -169 335 return
          </CharString>
          <CharString index="282">
            -75 -33 -42 -97 vhcurveto
            -19 -109 hlineto
            -198 116 -108 186 103 77 46 63 48 vhcurveto
            -5 22 23 -3 25 hhcurveto
            return
          </CharString>
          <CharString index="283">
            hhcurveto
            -156 -138 -81 -168 236 callgsubr
            35 30 65 return
          </CharString>
          <CharString index="284">
            rmoveto
            186 -532 222 532 188 176 -596 hlineto
            return
          </CharString>
          <CharString index="285">
            35 callgsubr
            6 hlineto
            return
          </CharString>
          <CharString index="286">
            rmoveto
            51 378 -53 vlineto
            -88 -5 -68 -30 -45 -48 rrcurveto
            -188 10 callsubr
            726 222 callsubr
            return
          </CharString>
          <CharString index="287">
            -169 338 -91 -47 vlineto
            -132 -113 -64 -147 -127 97 -83 143 154 81 100 137 hvcurveto
            22 return
          </CharString>
          <CharString index="288">
            -20 callgsubr
            95 -571 -27 callgsubr
          </CharString>
          <CharString index="289">
            251 133 120 179 return
          </CharString>
          <CharString index="290">
            -44 -15 -23 -31 return
          </CharString>
          <CharString index="291">
            -33 callsubr
            hvcurveto
            88 102 callsubr
            return
          </CharString>
          <CharString index="292">
            -682 -68 735 rmoveto
            -130 243 -57 33 -170 264 callsubr
            return
          </CharString>
          <CharString index="293">
            241 callgsubr
            -73 -172 -13 callsubr
            hvcurveto
            return
          </CharString>
          <CharString index="294" raw="1">
            15aba3a3 adaca273 6b6a740b 
          </CharString>
          <CharString index="295">
            -95 83 -27 67 vhcurveto
            168 return
          </CharString>
          <CharString index="296">
            rmoveto
            28 98 -305 161 callgsubr
            -269 -98 25 vlineto
            167 callsubr
            return
          </CharString>
          <CharString index="297">
            326 174 rmoveto
            -62 -54 39 65 9 1 8 1 8 hvcurveto
            168 -114 rlineto
            -10 -16 -18 -5 -20 hhcurveto
            return
          </CharString>
          <CharString index="298">
            -49 callgsubr
            303 vlineto
            -1 0 return
          </CharString>
          <CharString index="299">
            -169 317 -53 vlineto
            -169 -10 -95 -103 -140 vvcurveto
            return
          </CharString>
          <CharString index="300">
            41 17 -31 -31 return
          </CharString>
          <CharString index="301">
            -129 rmoveto
            -46 -28 31 39 38 27 33 51 24 23 1 3 21 hvcurveto
            -74 vlineto
            -42 -29 -29 -43 vhcurveto
            return
          </CharString>
          <CharString index="302">
            rmoveto
            25 callsubr
            return
          </CharString>
          <CharString index="303">
            153 callgsubr
            97 21 43 80 85 vvcurveto
            71 110 -197 vlineto
            -80 -42 -63 -91 vhcurveto
            return
          </CharString>
          <CharString index="304">
            189 rmoveto
            -114 -31 30 40 28 20 23 38 hvcurveto
            15 162 -19 hlineto
            -36 -11 25 33 hvcurveto
            41 return
          </CharString>
          <CharString index="305">
            -132 206 callgsubr
            return
          </CharString>
          <CharString index="306">
            rmoveto
            105 callsubr
            return
          </CharString>
          <CharString index="307">
            82 77 119 return
          </CharString>
          <CharString index="308">
            166 hlineto
            -6 21 -4 24 22 vvcurveto
            32 11 24 25 25 9 -29 -29 -93 -64 -43 -140 vhcurveto
            return
          </CharString>
          <CharString index="309">
            -192 vlineto
            122 callsubr
            46 159 return
          </CharString>
          <CharString index="310">
            147 -72 11 vlineto
            52 21 23 34 vhcurveto
            78 vlineto
            -113 -51 -80 -96 -42 7 -46 18 -47 hvcurveto
            return
          </CharString>
          <CharString index="311">
            182 callsubr
            97 -43 71 -74 31 return
          </CharString>
          <CharString index="312">
            -28 -18 -23 -31 -50 vvcurveto
            188 callsubr
            return
          </CharString>
          <CharString index="313">
            -31 vlineto
            -44 -15 -39 -114 vhcurveto
            return
          </CharString>
          <CharString index="314">
            hhcurveto
            -54 289 callsubr
            return
          </CharString>
          <CharString index="315">
            -147 117 -79 121 return
          </CharString>
          <CharString index="316">
            280 -80 callsubr
            return
          </CharString>
          <CharString index="317">
            23 -20 27 36 vvcurveto
            367 -573 rmoveto
            187 -6 callsubr
            -271 -395 hlineto
            return
          </CharString>
          <CharString index="318">
            429 307 rmoveto
            -48 -22 37 46 hvcurveto
            181 144 -181 vlineto
            -45 -23 -38 -51 vhcurveto
            return
          </CharString>
          <CharString index="319">
            260 callgsubr
            -169 vlineto
            -53 -26 -42 -56 vhcurveto
            return
          </CharString>
          <CharString index="320">
            68 -308 61 callgsubr
            endchar
          </CharString>
          <CharString index="321">
            rmoveto
            52 123 -137 98 callsubr
            404 52 -80 callsubr
            return
          </CharString>
          <CharString index="322">
            -34 -19 15 28 28 25 14 26 hvcurveto
            11 158 -13 hlineto
            -27 -28 11 29 29 27 11 return
          </CharString>
          <CharString index="323">
            -45 47 66 -25 83 hhcurveto
            64 49 19 32 36 hvcurveto
            -114 17 callsubr
          </CharString>
          <CharString index="324">
            42 30 34 49 47 142 callgsubr
            -47 return
          </CharString>
          <CharString index="325">
            62 -49 49 -78 -79 -49 -49 -62 -61 49 -48 79 return
          </CharString>
          <CharString index="326">
            130 hlineto
            -2 4 -1 4 4 vvcurveto
            return
          </CharString>
          <CharString index="327">
            -95 233 callgsubr
            return
          </CharString>
          <CharString index="328">
            174 callsubr
            -100 -44 return
          </CharString>
          <CharString index="329">
            51 -80 callsubr
            return
          </CharString>
          <CharString index="330">
            rmoveto
            -39 callgsubr
            -38 -9 28 26 vhcurveto
            return
          </CharString>
          <CharString index="331">
            vvcurveto
            208 callsubr
            116 104 63 135 280 callgsubr
            return
          </CharString>
          <CharString index="332">
            -283 -36 -198 rmoveto
            213 hlineto
            265 1153 rlineto
            -212 hlineto
            endchar
          </CharString>
          <CharString index="333">
            -360 317 -106 rmoveto
            267 callgsubr
            return
          </CharString>
          <CharString index="334">
            44 32 35 51 48 33 -32 -46 -46 -33 -33 -48 -51 -32 34 44 vhcurveto
            359 return
          </CharString>
          <CharString index="335">
            rmoveto
            164 352 -230 -127 66 hlineto
            return
          </CharString>
          <CharString index="336">
            rmoveto
            148 hlineto
            13 235 rlineto
            -175 hlineto
            return
          </CharString>
          <CharString index="337">
            144 hhcurveto
            78 59 22 36 41 hvcurveto
            -121 return
          </CharString>
          <CharString index="338">
            -18 -20 -7 16 19 vhcurveto
            77 return
          </CharString>
          <CharString index="339">
            170 callgsubr
            25 33 44 return
          </CharString>
          <CharString index="340">
            28 26 vhcurveto
            45 return
          </CharString>
          <CharString index="341">
            -90 -267 -156 vlineto
            183 callsubr
            vhcurveto
            593 313 -80 callsubr
            return
          </CharString>
          <CharString index="342">
            rmoveto
            130 63 vlineto
            50 19 -26 -39 -39 -19 -26 -50 hvcurveto
            294 65 rmoveto
            return
          </CharString>
          <CharString index="343">
            77 119 5 0 9 -1 11 hvcurveto
            -196 -13 hlineto
            -18 -8 -17 -22 -23 return
          </CharString>
          <CharString index="344">
            919 169 callsubr
            459 -110 hlineto
            -58 callsubr
            return
          </CharString>
          <CharString index="345">
            hlineto
            10 30 6 33 37 vvcurveto
            120 -54 72 -70 33 vhcurveto
            75 vlineto
            endchar
          </CharString>
          <CharString index="346">
            247 callgsubr
            hvcurveto
            -85 vlineto
            return
          </CharString>
          <CharString index="347">
            377 169 return
          </CharString>
          <CharString index="348">
            18 36 34 23 19 30 34 17 -25 -28 1 hvcurveto
            -33 -21 -21 -31 vhcurveto
            return
          </CharString>
          <CharString index="349">
            154 -217 vlineto
            -64 -46 -38 -59 vhcurveto
            385 319 -80 callsubr
            return
          </CharString>
          <CharString index="350">
            -283 116 hmoveto
            233 708 -339 -208 106 hlineto
            endchar
          </CharString>
          <CharString index="351">
            1 -305 rlineto
            -145 89 -102 173 return
          </CharString>
          <CharString index="352">
            26 16 36 hvcurveto
            38 return
          </CharString>
          <CharString index="353">
            -26 248 callsubr
            return
          </CharString>
          <CharString index="354">
            -179 204 return
          </CharString>
          <CharString index="355">
            -3 -6 -23 vhcurveto
            return
          </CharString>
          <CharString index="356">
            676 hmoveto
            267 vlineto
            43 4 18 30 38 hhcurveto
            193 callsubr
            return
          </CharString>
          <CharString index="357">
            -169 vlineto
            endchar
          </CharString>
          <CharString index="358">
            -104 -126 rlineto
            229 callgsubr
            return
          </CharString>
          <CharString index="359">
            149 hhcurveto
            78 59 22 36 41 hvcurveto
            return
          </CharString>
          <CharString index="360">
            -222 -564 222 vlineto
            return
          </CharString>
          <CharString index="361">
            137 -53 116 -172 return
          </CharString>
          <CharString index="362">
            174 callsubr
            -61 -15 return
          </CharString>
          <CharString index="363">
            -105 -56 -56 -73 -45 19 return
          </CharString>
          <CharString index="364">
            -103 -130 -135 return
          </CharString>
          <CharString index="365">
            -57 -32 34 46 54 45 28 52 vhcurveto
            163 222 hlineto
            return
          </CharString>
          <CharString index="366">
            -96 -33 54 62 80 62 43 81 vhcurveto
            119 162 hlineto
            return
          </CharString>
          <CharString index="367">
            rmoveto
            159 -16 vlineto
            -61 -26 34 44 46 36 30 52 hvcurveto
            return
          </CharString>
          <CharString index="368">
            280 callsubr
            vvcurveto
            -171 99 -111 175 return
          </CharString>
          <CharString index="369">
            -169 343 -37 -7 vlineto
            -153 -113 -88 -151 return
          </CharString>
          <CharString index="370">
            -59 36 62 -38 85 hhcurveto
            64 callgsubr
            return
          </CharString>
          <CharString index="371">
            1 rrcurveto
            -56 -163 59 hlineto
            83 19 -19 -95 62 hvcurveto
            return
          </CharString>
          <CharString index="372">
            571 132 219 callgsubr
            return
          </CharString>
          <CharString index="373">
            256 callsubr
            -39 39 -27 hvcurveto
            -50 -37 -31 return
          </CharString>
          <CharString index="374">
            vvcurveto
            115 -88 79 -145 -143 -86 -83 -109 return
          </CharString>
          <CharString index="375">
            vvcurveto
            -208 162 -116 175 8 vhcurveto
            endchar
          </CharString>
          <CharString index="376">
            -23 -24 -33 -34 -24 24 32 vhcurveto
            return
          </CharString>
          <CharString index="377">
            rmoveto
            109 callsubr
            return
          </CharString>
          <CharString index="378">
            -196 vlineto
            -80 -42 -63 -91 vhcurveto
            return
          </CharString>
          <CharString index="379">
            -12 callgsubr
            endchar
          </CharString>
          <CharString index="380">
            -54 37 -90 hhcurveto
            return
          </CharString>
          <CharString index="381">
            571 vlineto
            endchar
          </CharString>
          <CharString index="382">
            307 rmoveto
            -55 -24 42 52 hvcurveto
            170 161 return
          </CharString>
          <CharString index="383">
            -133 97 -86 144 159 79 95 146 return
          </CharString>
          <CharString index="384">
            167 118 99 147 36 -7 33 -13 30 return
          </CharString>
          <CharString index="385">
            146 callsubr
            79 95 146 vhcurveto
            28 95 return
          </CharString>
          <CharString index="386">
            -1 -8 0 -9 -9 vvcurveto
            return
          </CharString>
          <CharString index="387">
            hlineto
            -3 -24 -2 -22 -23 return
          </CharString>
          <CharString index="388">
            -106 vlineto
            34 -33 -47 18 return
          </CharString>
          <CharString index="389">
            -115 -91 -57 -125 -39 6 -32 6 -19 return
          </CharString>
          <CharString index="390">
            34 49 47 142 callgsubr
            -47 hvcurveto
            return
          </CharString>
          <CharString index="391" raw="1">
            f78b0af7 7c0a0b  
          </CharString>
          <CharString index="392">
            272 callgsubr
            -8 hlineto
            -2 return
          </CharString>
          <CharString index="393">
            107 20 273 callgsubr
            69 return
          </CharString>
          <CharString index="394">
            -66 107 153 callsubr
            return
          </CharString>
          <CharString index="395">
            129 -93 109 -188 return
          </CharString>
          <CharString index="396">
            -43 -19 -33 -28 hvcurveto
            return
          </CharString>
          <CharString index="397">
            rmoveto
            -95 100 95 hlineto
            return
          </CharString>
          <CharString index="398">
            -150 -133 return
          </CharString>
          <CharString index="399">
            347 291 rmoveto
            -64 -29 42 62 hvcurveto
            return
          </CharString>
          <CharString index="400">
            -5 hlineto
            74 callsubr
            return
          </CharString>
          <CharString index="401">
            -111 -149 rlineto
            204 hlineto
            65 98 return
          </CharString>
          <CharString index="402">
            110 271 callsubr
            return
          </CharString>
          <CharString index="403">
            -32 -29 3 vhcurveto
            154 hlineto
            117 16 return
          </CharString>
          <CharString index="404">
            -55 -37 -57 -32 return
          </CharString>
          <CharString index="405">
            -83 -121 vlineto
            return
          </CharString>
        <CharString name=".notdef">
          -182 0 vmoveto
          500 700 -500 hlineto
          250 -305 rmoveto
          -170 255 rlineto
          340 hlineto
          -140 -300 rmoveto
          170 255 rlineto
          -510 vlineto
          -370 -45 rmoveto
          170 255 170 -255 rlineto
          -370 555 rmoveto
          170 -255 -170 -255 rlineto
          endchar
        </CharString>
        <CharString name="A">
          -50 callsubr
          -54 167 94 callgsubr
        </CharString>
        <CharString name="AE">
          304 490 537 117 callsubr
        </CharString>
        <CharString name="Aacute">
          -50 callsubr
          -247 787 -62 callgsubr
          -66 -730 94 callgsubr
        </CharString>
        <CharString name="Abreve">
          -50 callsubr
          70 840 -76 callgsubr
          -124 -673 94 callgsubr
        </CharString>
        <CharString name="Acircumflex">
          -50 callsubr
          48 773 -54 callsubr
          -102 -462 94 callgsubr
        </CharString>
        <CharString name="Adieresis">
          -50 callsubr
          -231 657 rmoveto
          -101 callsubr
          225 hmoveto
          -101 callsubr
          -48 -490 94 callgsubr
        </CharString>
        <CharString name="Agrave">
          -50 callsubr
          -247 733 rmoveto
          259 -94 rlineto
          148 vlineto
          -259 110 rlineto
          193 -730 94 callgsubr
        </CharString>
        <CharString name="Amacron">
          -50 callsubr
          -333 659 rmoveto
          431 147 -431 hlineto
          279 -639 94 callgsubr
        </CharString>
        <CharString name="Aogonek">
          91 0 vmoveto
          233 hlineto
          35 107 rlineto
          237 hlineto
          35 -109 rlineto
          -32 -25 -14 -31 -39 203 callgsubr
          90 hlineto
          -252 693 rlineto
          -256 hlineto
          191 -434 94 callgsubr
        </CharString>
        <CharString name="Aring">
          -50 callsubr
          -72 762 rmoveto
          -28 -20 -19 -26 -26 -20 19 28 29 20 18 26 26 20 -18 -29 vhcurveto
          -178 hmoveto
          -82 59 -50 73 73 59 50 82 82 -59 50 -73 -73 -59 -50 -82 vhcurveto
          196 -595 94 callgsubr
        </CharString>
        <CharString name="Atilde">
          -50 callsubr
          -347 649 rmoveto
          -95 callgsubr
          293 -482 94 callgsubr
        </CharString>
        <CharString name="B">
          2 432 227 rmoveto
          -35 -19 -14 -40 vhcurveto
          -101 100 101 hlineto
          40 19 -17 -34 hvcurveto
          -15 254 rmoveto
          -34 -19 -15 -40 vhcurveto
          -86 100 86 hlineto
          40 19 -16 -35 hvcurveto
          242 -287 rmoveto
          79 -48 69 -87 21 vhcurveto
          70 18 49 58 85 vvcurveto
          123 -91 61 -141 vhcurveto
          -361 -708 371 hlineto
          154 84 70 124 hvcurveto
          endchar
        </CharString>
        <CharString name="C">
          -42 callgsubr
          endchar
        </CharString>
        <CharString name="CR">
          -512 endchar
        </CharString>
        <CharString name="Cacute">
          -42 callgsubr
          217 539 -62 callgsubr
          endchar
        </CharString>
        <CharString name="Ccaron">
          -42 callgsubr
          347 522 -60 callgsubr
        </CharString>
        <CharString name="Ccedilla">
          71 30 355 rmoveto
          -191 109 -140 181 -25 vhcurveto
          -126 85 vlineto
          14 callgsubr
          27 vlineto
          150 24 100 104 25 146 rrcurveto
          -234 hlineto
          -47 -21 -42 -27 -50 hhcurveto
          -75 -46 61 94 94 46 61 75 50 42 -27 -47 21 hvcurveto
          234 hlineto
          167 -29 -127 112 -187 hhcurveto
          -217 -133 -149 -211 hvcurveto
          endchar
        </CharString>
        <CharString name="Cdotaccent">
          -42 callgsubr
          345 409 rmoveto
          -101 callsubr
          endchar
        </CharString>
        <CharString name="D">
          61 345 708 rmoveto
          -295 -708 78 callgsubr
          316 269 callgsubr
        </CharString>
        <CharString name="Dcaron">
          61 345 708 rmoveto
          -295 -708 78 callgsubr
          316 187 callgsubr
          57 679 -60 callgsubr
        </CharString>
        <CharString name="Dcroat">
          86 callsubr
        </CharString>
        <CharString name="E">
          -59 callsubr
          endchar
        </CharString>
        <CharString name="Eacute">
          -59 callsubr
          -365 362 -62 callgsubr
          endchar
        </CharString>
        <CharString name="Ebreve">
          -59 callsubr
          -48 415 -76 callgsubr
          endchar
        </CharString>
        <CharString name="Ecaron">
          -59 callsubr
          -235 345 -60 callgsubr
        </CharString>
        <CharString name="Ecircumflex">
          -59 callsubr
          -70 348 -54 callsubr
          endchar
        </CharString>
        <CharString name="Edieresis">
          -59 callsubr
          -349 232 rmoveto
          -101 callsubr
          225 hmoveto
          -101 callsubr
          endchar
        </CharString>
        <CharString name="Edotaccent">
          -59 callsubr
          -237 232 rmoveto
          -101 callsubr
          endchar
        </CharString>
        <CharString name="Egrave">
          -59 callsubr
          -365 308 -19 callgsubr
        </CharString>
        <CharString name="Emacron">
          -59 callsubr
          -451 234 81 callsubr
        </CharString>
        <CharString name="Eogonek">
          -126 522 708 rmoveto
          -472 -708 156 hlineto
          -1 -7 -1 -7 -8 136 callgsubr
          145 177 -250 100 220 167 -220 88 250 hlineto
          endchar
        </CharString>
        <CharString name="Eth">
          86 callsubr
        </CharString>
        <CharString name="Euro">
          108 67 355 rmoveto
          -4 0 -4 -4 vvcurveto
          -52 -99 66 hlineto
          -150 39 120 -99 177 hhcurveto
          187 127 112 167 29 hvcurveto
          -234 hlineto
          -47 -21 -42 -27 -50 hhcurveto
          -38 -31 16 28 -21 hvcurveto
          128 99 -159 hlineto
          4 0 4 4 6 0 5 5 vvcurveto
          159 100 -124 hlineto
          25 21 29 14 36 hhcurveto
          50 42 -27 -47 21 hvcurveto
          234 hlineto
          167 -29 -127 112 -187 hhcurveto
          -175 -120 -96 -148 -40 hvcurveto
          -67 -100 52 hlineto
          -5 0 -6 -5 vvcurveto
          endchar
        </CharString>
        <CharString name="F">
          -107 50 hmoveto
          222 267 200 167 -200 98 278 176 -500 hlineto
          endchar
        </CharString>
        <CharString name="G">
          70 30 355 -43 callsubr
          endchar
        </CharString>
        <CharString name="Gbreve">
          70 30 355 -43 callsubr
          534 592 -76 callgsubr
          endchar
        </CharString>
        <CharString name="Gdotaccent">
          70 30 355 -43 callsubr
          345 409 rmoveto
          -101 callsubr
          endchar
        </CharString>
        <CharString name="H">
          73 483 168 callgsubr
          -255 -211 255 -222 -708 222 276 211 hlineto
          endchar
        </CharString>
        <CharString name="I">
          109 callgsubr
          endchar
        </CharString>
        <CharString name="Iacute">
          109 callgsubr
          -18 186 -62 callgsubr
          endchar
        </CharString>
        <CharString name="Icircumflex">
          109 callgsubr
          277 172 -54 callsubr
          endchar
        </CharString>
        <CharString name="Idieresis">
          109 callgsubr
          -2 56 rmoveto
          -101 callsubr
          225 hmoveto
          -101 callsubr
          endchar
        </CharString>
        <CharString name="Idotaccent">
          109 callgsubr
          110 56 rmoveto
          -101 callsubr
          endchar
        </CharString>
        <CharString name="Igrave">
          109 callgsubr
          -18 132 -19 callgsubr
        </CharString>
        <CharString name="Imacron">
          109 callgsubr
          -104 58 81 callsubr
        </CharString>
        <CharString name="Iogonek">
          226 callsubr
          783 -222 -706 hlineto
          205 callsubr
          hlineto
          endchar
        </CharString>
        <CharString name="Itilde">
          109 callgsubr
          -118 48 rmoveto
          -95 callgsubr
          endchar
        </CharString>
        <CharString name="J">
          -92 323 251 rmoveto
          -46 -18 -12 -24 -29 -23 16 62 vhcurveto
          -219 hlineto
          -186 115 -92 166 156 97 85 173 vhcurveto
          457 -221 vlineto
          endchar
        </CharString>
        <CharString name="K">
          73 478 hmoveto
          159 callgsubr
        </CharString>
        <CharString name="L">
          -176 50 708 rmoveto
          152 callgsubr
          endchar
        </CharString>
        <CharString name="Lacute">
          -176 50 708 rmoveto
          152 callgsubr
          -133 186 -62 callgsubr
          endchar
        </CharString>
        <CharString name="Lcaron">
          -105 369 708 195 callsubr
          -475 hmoveto
          152 callgsubr
          endchar
        </CharString>
        <CharString name="Ldot">
          -176 50 708 rmoveto
          152 callgsubr
          127 -440 rmoveto
          -101 callsubr
          endchar
        </CharString>
        <CharString name="Lslash">
          -161 65 708 rmoveto
          -256 vlineto
          -55 -15 rlineto
          -216 vlineto
          55 15 rlineto
          -236 436 168 -214 129 vlineto
          75 21 rlineto
          216 vlineto
          -75 -21 rlineto
          195 vlineto
          endchar
        </CharString>
        <CharString name="M">
          269 50 hmoveto
          222 353 hlineto
          109 -353 rlineto
          190 hlineto
          109 353 rlineto
          -353 221 708 -271 vlineto
          -152 -425 -156 425 rlineto
          -272 hlineto
          endchar
        </CharString>
        <CharString name="N">
          97 507 708 25 callgsubr
          endchar
        </CharString>
        <CharString name="NULL">
          -682 endchar
        </CharString>
        <CharString name="Nacute">
          97 507 708 25 callgsubr
          -469 186 -62 callgsubr
          endchar
        </CharString>
        <CharString name="Ncaron">
          97 507 708 25 callgsubr
          -339 169 -60 callgsubr
        </CharString>
        <CharString name="Ntilde">
          97 507 708 25 callgsubr
          -569 48 rmoveto
          -95 callgsubr
          endchar
        </CharString>
        <CharString name="O">
          -91 callsubr
          endchar
        </CharString>
        <CharString name="OE">
          367 256 354 rmoveto
          98 48 63 91 89 49 -63 -98 -98 -49 -63 -89 -91 -48 63 98 vhcurveto
          759 178 rmoveto
          176 -472 -37 vlineto
          33 -44 -62 16 -59 hhcurveto
          -202 -146 -151 -215 -215 146 -151 202 hvcurveto
          59 3 62 13 44 33 rrcurveto
          -37 472 177 -250 100 220 167 -220 88 vlineto
          endchar
        </CharString>
        <CharString name="Oacute">
          -91 callsubr
          -268 537 -62 callgsubr
          endchar
        </CharString>
        <CharString name="Ocircumflex">
          -91 callsubr
          27 523 -54 callsubr
          endchar
        </CharString>
        <CharString name="Odieresis">
          -91 callsubr
          -252 407 rmoveto
          -101 callsubr
          225 hmoveto
          -101 callsubr
          endchar
        </CharString>
        <CharString name="Ograve">
          -91 callsubr
          -268 483 -19 callgsubr
        </CharString>
        <CharString name="Ohungarumlaut">
          -91 callsubr
          -1 632 53 callsubr
        </CharString>
        <CharString name="Omacron">
          -91 callsubr
          -354 409 81 callsubr
        </CharString>
        <CharString name="Oslash">
          106 29 357 rmoveto
          -97 34 -84 56 -63 vhcurveto
          -101 -112 rlineto
          116 hlineto
          50 55 rlineto
          -40 59 73 -23 78 hhcurveto
          200 163 151 213 97 -33 83 -55 63 hvcurveto
          100 112 rlineto
          -115 hlineto
          -49 -55 rlineto
          40 -60 -72 23 -79 hhcurveto
          -201 -164 -150 -213 hvcurveto
          226 hmoveto
          96 48 62 91 27 23 -6 -10 19 vhcurveto
          -195 -218 rlineto
          -9 22 -4 25 29 vvcurveto
          139 -157 rmoveto
          -27 -22 5 10 -20 hvcurveto
          194 217 rlineto
          9 -21 4 -26 -28 vvcurveto
          -94 -49 -63 -89 vhcurveto
          endchar
        </CharString>
        <CharString name="Otilde">
          -91 callsubr
          -368 399 rmoveto
          -95 callgsubr
          endchar
        </CharString>
        <CharString name="P">
          -33 272 400 235 callsubr
          143 -91 100 -178 vhcurveto
          -310 -708 222 225 88 hlineto
          178 91 109 131 hvcurveto
          endchar
        </CharString>
        <CharString name="Q">
          106 533 357 rmoveto
          -94 -49 -63 -89 -91 -48 63 94 96 48 62 91 89 49 -62 -96 vhcurveto
          -503 hmoveto
          -213 164 -151 201 18 18 1 3 17 vhcurveto
          68 -112 rlineto
          262 hlineto
          -144 194 rlineto
          76 65 48 97 116 vvcurveto
          213 -161 150 -202 -201 -164 -150 -213 vhcurveto
          endchar
        </CharString>
        <CharString name="R">
          -12 424 462 -46 callsubr
          endchar
        </CharString>
        <CharString name="Racute">
          -12 424 462 -46 callsubr
          -159 186 -62 callgsubr
          endchar
        </CharString>
        <CharString name="Rcaron">
          -12 424 462 -46 callsubr
          -29 169 -60 callgsubr
        </CharString>
        <CharString name="S">
          -57 268 513 -48 callgsubr
          endchar
        </CharString>
        <CharString name="Sacute">
          -57 268 513 -48 callgsubr
          -84 381 -62 callgsubr
          endchar
        </CharString>
        <CharString name="Scaron">
          -57 268 513 -48 callgsubr
          46 364 -60 callgsubr
        </CharString>
        <CharString name="T">
          -66 10 532 177 callsubr
          endchar
        </CharString>
        <CharString name="Tcaron">
          -66 10 532 177 callsubr
          299 169 -60 callgsubr
        </CharString>
        <CharString name="Thorn">
          -33 272 290 235 callsubr
          137 -91 96 -178 vhcurveto
          -90 120 -220 -708 222 125 88 hlineto
          178 91 104 126 hvcurveto
          endchar
        </CharString>
        <CharString name="U">
          -85 callsubr
          endchar
        </CharString>
        <CharString name="Uacute">
          -85 callsubr
          184 186 -62 callgsubr
          endchar
        </CharString>
        <CharString name="Ubreve">
          -85 callsubr
          501 239 -76 callgsubr
          endchar
        </CharString>
        <CharString name="Ucircumflex">
          -85 callsubr
          479 172 -54 callsubr
          endchar
        </CharString>
        <CharString name="Udieresis">
          -85 callsubr
          200 56 rmoveto
          -101 callsubr
          225 hmoveto
          -101 callsubr
          endchar
        </CharString>
        <CharString name="Ugrave">
          -85 callsubr
          184 132 -19 callgsubr
        </CharString>
        <CharString name="Uhungarumlaut">
          -85 callsubr
          392 281 53 callsubr
        </CharString>
        <CharString name="Umacron">
          -85 callsubr
          98 58 81 callsubr
        </CharString>
        <CharString name="Uogonek">
          86 611 -141 rmoveto
          112 -133 vlineto
          -20 -8 6 9 9 6 7 28 8 hvcurveto
          105 30 109 100 169 vvcurveto
          201 callgsubr
          -399 vlineto
          -61 -27 -45 -67 -67 -24 45 61 210 callgsubr
          -399 vlineto
          -175 105 -104 126 -29 vhcurveto
          -14 vlineto
          -90 74 -38 59 vhcurveto
          endchar
        </CharString>
        <CharString name="Uring">
          -85 callsubr
          181 161 62 callgsubr
        </CharString>
        <CharString name="Utilde">
          -85 callsubr
          84 48 rmoveto
          -95 callgsubr
          endchar
        </CharString>
        <CharString name="V">
          81 238 hmoveto
          287 hlineto
          238 708 rlineto
          -236 hlineto
          -145 -487 -146 487 rlineto
          -236 hlineto
          endchar
        </CharString>
        <CharString name="W">
          -32 callsubr
          endchar
        </CharString>
        <CharString name="Wacute">
          -32 callsubr
          391 186 -62 callgsubr
          endchar
        </CharString>
        <CharString name="Wcircumflex">
          -32 callsubr
          686 172 -54 callsubr
          endchar
        </CharString>
        <CharString name="Wdieresis">
          -32 callsubr
          407 56 rmoveto
          -101 callsubr
          225 hmoveto
          -101 callsubr
          endchar
        </CharString>
        <CharString name="Wgrave">
          -32 callsubr
          391 132 -19 callgsubr
        </CharString>
        <CharString name="X">
          82 501 hmoveto
          263 hlineto
          -248 350 229 358 rlineto
          -253 hlineto
          -104 -177 -125 177 rlineto
          -263 hlineto
          243 -343 -233 -365 rlineto
          253 hlineto
          108 184 rlineto
          endchar
        </CharString>
        <CharString name="Y">
          -18 callgsubr
          endchar
        </CharString>
        <CharString name="Yacute">
          -18 callgsubr
          236 186 -62 callgsubr
          endchar
        </CharString>
        <CharString name="Ycircumflex">
          -18 callgsubr
          531 172 -54 callsubr
          endchar
        </CharString>
        <CharString name="Ydieresis">
          -18 callgsubr
          252 56 rmoveto
          -101 callsubr
          225 hmoveto
          -101 callsubr
          endchar
        </CharString>
        <CharString name="Ygrave">
          -18 callgsubr
          236 132 -19 callgsubr
        </CharString>
        <CharString name="Z">
          42 callgsubr
          endchar
        </CharString>
        <CharString name="Zacute">
          42 callgsubr
          -394 353 -62 callgsubr
          endchar
        </CharString>
        <CharString name="Zcaron">
          42 callgsubr
          -264 336 -60 callgsubr
        </CharString>
        <CharString name="Zdotaccent">
          42 callgsubr
          -266 223 rmoveto
          -101 callsubr
          endchar
        </CharString>
        <CharString name="a">
          -92 callgsubr
          endchar
        </CharString>
        <CharString name="aacute">
          -92 callgsubr
          -213 468 -62 callgsubr
          endchar
        </CharString>
        <CharString name="abreve">
          -92 callgsubr
          104 521 -76 callgsubr
          endchar
        </CharString>
        <CharString name="acircumflex">
          -92 callgsubr
          82 454 -54 callsubr
          endchar
        </CharString>
        <CharString name="acute">
          -403 10 750 -62 callgsubr
          endchar
        </CharString>
        <CharString name="adieresis">
          -92 callgsubr
          -197 338 rmoveto
          -101 callsubr
          225 hmoveto
          -101 callsubr
          endchar
        </CharString>
        <CharString name="ae">
          4 callgsubr
          endchar
        </CharString>
        <CharString name="agrave">
          -92 callgsubr
          -213 414 -19 callgsubr
        </CharString>
        <CharString name="amacron">
          -92 callgsubr
          -299 340 81 callsubr
        </CharString>
        <CharString name="ampersand">
          18 419 39 rmoveto
          7 5 7 6 6 6 40 -56 rcurveline
          221 hlineto
          -334 468 rlineto
          -15 22 -6 10 12 vvcurveto
          12 8 8 12 16 7 -9 -18 3 vhcurveto
          2 -11 1 -14 -16 vvcurveto
          206 hlineto
          2 39 -4 43 -14 38 rrcurveto
          72 -28 -61 59 -134 hhcurveto
          -147 -76 -87 -91 -31 5 -29 11 -27 hvcurveto
          4 -8 4 -8 5 -9 rrcurveto
          -83 -23 -59 -77 -107 vvcurveto
          -120 79 -105 160 65 51 18 28 39 vhcurveto
          -205 185 rmoveto
          28 21 18 31 31 21 -18 -28 -29 -21 -19 -31 -31 -21 19 29 vhcurveto
          endchar
        </CharString>
        <CharString name="aogonek">
          -2 248 callgsubr
          -182 103 -107 130 75 54 33 51 27 vhcurveto
          -74 vlineto
          -29 -18 -23 -32 -50 203 callgsubr
          639 -221 -77 hlineto
          51 -27 -54 165 callgsubr
        </CharString>
        <CharString name="approxequal">
          29 20 70 rmoveto
          54 callsubr
          275 vmoveto
          54 callsubr
          endchar
        </CharString>
        <CharString name="aring">
          -92 callgsubr
          -216 443 62 callgsubr
        </CharString>
        <CharString name="asciicircum">
          76 513 162 rmoveto
          220 hlineto
          -244 549 rlineto
          -218 hlineto
          -246 -549 rlineto
          220 hlineto
          135 298 rlineto
          endchar
        </CharString>
        <CharString name="asciitilde">
          29 20 181 rmoveto
          54 callsubr
          endchar
        </CharString>
        <CharString name="asterisk">
          -121 356 744 rmoveto
          -142 hlineto
          31 -119 -92 83 -67 -121 109 -32 -111 -36 75 -129 85 87 -28 -117 rlineto
          139 hlineto
          -28 117 87 -86 73 127 -111 34 111 36 -67 121 -93 -84 rlineto
          endchar
        </CharString>
        <CharString name="at">
          671 752 282 rmoveto
          -79 -9 -51 -16 -31 hhcurveto
          -33 -49 15 79 10 hvcurveto
          79 9 51 16 32 hhcurveto
          31 50 -14 -80 -10 hvcurveto
          -375 -4 rmoveto
          -170 -22 89 -114 137 hhcurveto
          99 60 49 78 40 hvcurveto
          -87 25 76 -40 99 hhcurveto
          184 167 165 208 318 -232 158 -337 -369 -350 -208 -408 -306 192 -201 383 -5 hvcurveto
          42 179 rlineto
          -290 -4 -113 147 190 vvcurveto
          241 160 195 310 247 132 -121 -183 -123 -60 -49 -50 -32 -12 17 54 6 vhcurveto
          8 68 rlineto
          168 19 -117 73 -147 hhcurveto
          -184 -140 -119 -170 -20 hvcurveto
          endchar
        </CharString>
        <CharString name="atilde">
          -92 callgsubr
          -313 330 rmoveto
          -95 callgsubr
          endchar
        </CharString>
        <CharString name="b">
          -2 272 487 rmoveto
          253 -222 -740 222 77 110 callsubr
        </CharString>
        <CharString name="backslash">
          196 412 955 rmoveto
          -212 hlineto
          240 -1153 rlineto
          212 hlineto
          endchar
        </CharString>
        <CharString name="bar">
          -420 20 828 rmoveto
          -972 222 972 vlineto
          endchar
        </CharString>
        <CharString name="braceleft">
          -169 247 373 rmoveto
          74 14 33 37 78 65 -16 58 67 vvcurveto
          146 64 78 77 29 vhcurveto
          16 -207 vlineto
          -38 -17 -99 -70 -185 -72 17 -52 -69 vvcurveto
          -45 -22 -43 -73 vhcurveto
          -72 vlineto
          69 26 -43 -45 hvcurveto
          -69 -17 -52 -72 vvcurveto
          -185 99 -70 38 -17 vhcurveto
          207 16 hlineto
          -77 29 -64 78 146 68 16 57 65 vvcurveto
          78 -36 38 -71 13 vhcurveto
          endchar
        </CharString>
        <CharString name="braceright">
          -193 268 371 rmoveto
          -71 -13 -36 -30 -66 -65 16 -57 -68 vvcurveto
          -136 -63 -108 -78 -29 vhcurveto
          -16 206 vlineto
          38 17 99 70 185 72 -17 52 69 vvcurveto
          45 27 52 68 -9 vhcurveto
          72 vlineto
          -68 -7 -27 50 45 69 17 52 72 vvcurveto
          185 -99 70 -38 17 vhcurveto
          -206 -16 hlineto
          78 -29 63 -108 -136 -67 -16 -58 -65 vvcurveto
          -66 34 -29 73 -14 vhcurveto
          endchar
        </CharString>
        <CharString name="bracketleft">
          -149 95 -199 rmoveto
          382 178 -174 798 174 178 -382 hlineto
          endchar
        </CharString>
        <CharString name="bracketright">
          -152 436 955 rmoveto
          -382 -178 175 -798 -175 -178 382 hlineto
          endchar
        </CharString>
        <CharString name="breve">
          -287 386 803 -76 callgsubr
          endchar
        </CharString>
        <CharString name="brokenbar">
          -250 105 287 rmoveto
          -431 222 431 vlineto
          111 vmoveto
          430 -222 -430 vlineto
          endchar
        </CharString>
        <CharString name="bullet">
          -146 268 166 rmoveto
          95 73 73 94 95 -73 74 -95 -94 -74 -74 -95 -94 74 -73 94 hvcurveto
          endchar
        </CharString>
        <CharString name="c">
          -40 callsubr
          endchar
        </CharString>
        <CharString name="cacute">
          -40 callsubr
          155 468 -62 callgsubr
          endchar
        </CharString>
        <CharString name="caron">
          -331 176 733 -60 callgsubr
        </CharString>
        <CharString name="ccaron">
          -40 callsubr
          285 451 -60 callgsubr
        </CharString>
        <CharString name="ccedilla">
          -73 248 callgsubr
          -142 74 -98 115 -35 vhcurveto
          -1 -134 85 hlineto
          14 callgsubr
          21 vlineto
          131 11 97 84 25 138 rrcurveto
          -235 hlineto
          -27 -8 -15 -17 -28 hhcurveto
          -34 -24 31 68 68 24 31 34 28 15 -17 -27 8 hvcurveto
          235 hlineto
          148 -27 -109 86 -145 hhcurveto
          59 callsubr
          hvcurveto
          endchar
        </CharString>
        <CharString name="cdotaccent">
          -40 callsubr
          283 338 rmoveto
          -101 callsubr
          endchar
        </CharString>
        <CharString name="cedilla">
          -339 203 7 rmoveto
          -128 -134 85 hlineto
          14 callgsubr
          endchar
        </CharString>
        <CharString name="cent">
          -103 559 205 rmoveto
          -203 hlineto
          -25 -6 -29 -10 -20 hhcurveto
          -46 -23 31 52 52 23 32 46 20 25 -8 -27 10 hvcurveto
          203 hlineto
          -8 125 -96 70 -111 14 rrcurveto
          78 -91 -78 vlineto
          -142 -15 -91 -89 -153 vvcurveto
          -155 91 -89 142 -15 vhcurveto
          -78 91 78 vlineto
          111 14 96 71 8 125 rrcurveto
          endchar
        </CharString>
        <CharString name="circumflex">
          -331 341 736 -54 callsubr
          endchar
        </CharString>
        <CharString name="colon">
          -350 62 hmoveto
          109 callsubr
          179 vmoveto
          109 callsubr
          endchar
        </CharString>
        <CharString name="comma">
          -406 25 131 126 callsubr
        </CharString>
        <CharString name="copyright">
          89 741 358 rmoveto
          -213 -144 -151 -211 -211 -145 151 213 213 145 149 211 211 144 -149 -213 vhcurveto
          -641 hmoveto
          -180 109 -119 177 176 110 119 180 181 -110 116 -176 -177 -109 -116 -181 vhcurveto
          64 -1 rmoveto
          -136 91 -85 135 107 89 69 111 16 vhcurveto
          -184 hlineto
          -17 -5 -10 -18 -23 hhcurveto
          -28 -17 24 52 52 17 24 28 23 10 -18 -17 5 hvcurveto
          184 hlineto
          111 -16 -89 69 -107 hhcurveto
          -135 -91 -85 -136 hvcurveto
          endchar
        </CharString>
        <CharString name="currency">
          -79 246 377 rmoveto
          44 28 15 30 30 28 -15 -44 -42 -28 -15 -30 -30 -28 15 42 vhcurveto
          297 164 rmoveto
          -80 81 -72 -72 rlineto
          7 -26 -29 4 -32 hhcurveto
          -33 -31 -4 -8 -27 hvcurveto
          -73 73 -80 -81 53 -53 rlineto
          -24 -29 -13 -36 -44 vvcurveto
          -42 13 -37 23 -29 vhcurveto
          -52 -52 80 -81 69 69 rlineto
          -9 28 32 -5 35 hhcurveto
          33 31 4 9 27 hvcurveto
          68 -68 80 81 -49 49 rlineto
          24 30 14 37 44 vvcurveto
          45 -14 38 -26 29 vhcurveto
          endchar
        </CharString>
        <CharString name="d">
          -2 248 callgsubr
          -182 103 -107 130 75 53 33 51 27 vhcurveto
          -77 222 740 -222 -253 73 callsubr
        </CharString>
        <CharString name="dagger">
          35 447 549 rmoveto
          22 245 rlineto
          -222 hlineto
          21 -245 -217 15 rlineto
          -166 vlineto
          217 15 -21 -683 rlineto
          222 hlineto
          -22 683 219 -15 rlineto
          166 vlineto
          endchar
        </CharString>
        <CharString name="daggerdbl">
          34 666 564 rmoveto
          -219 -15 21 245 rlineto
          -222 hlineto
          22 -245 -218 15 rlineto
          -166 vlineto
          218 15 rlineto
          -302 vlineto
          -218 16 rlineto
          -167 vlineto
          218 15 -22 -245 rlineto
          222 hlineto
          -21 245 219 -15 rlineto
          167 vlineto
          -219 -16 rlineto
          302 vlineto
          219 -15 rlineto
          endchar
        </CharString>
        <CharString name="danda">
          -299 276 callgsubr
          endchar
        </CharString>
        <CharString name="dcaron">
          200 690 740 rmoveto
          -146 72 -12 vlineto
          -51 -20 -23 -35 vhcurveto
          -79 vlineto
          114 51 80 97 42 -8 46 -18 46 hvcurveto
          -826 -458 rmoveto
          -182 103 -107 130 75 53 33 51 27 vhcurveto
          -77 222 740 -222 -253 73 callsubr
        </CharString>
        <CharString name="dcroat">
          22 248 callgsubr
          -182 103 -107 130 75 53 33 51 27 vhcurveto
          -77 222 592 64 96 -64 52 -222 -52 -59 -96 59 -105 73 callsubr
        </CharString>
        <CharString name="degree">
          -186 23 533 rmoveto
          -114 95 -72 135 135 85 72 114 115 -89 67 -135 -136 -90 -67 -115 vhcurveto
          281 -2 rmoveto
          -49 -27 -18 -24 -26 -35 18 49 51 32 18 26 24 30 -18 -51 vhcurveto
          endchar
        </CharString>
        <CharString name="dieresis">
          -265 95 620 rmoveto
          -101 callsubr
          225 hmoveto
          -101 callsubr
          endchar
        </CharString>
        <CharString name="divide">
          -131 20 240 rmoveto
          511 201 -511 hlineto
          144 -441 270 callsubr
          257 vmoveto
          109 callsubr
          endchar
        </CharString>
        <CharString name="dollar">
          -17 304 -87 rmoveto
          51 80 hlineto
          180 102 96 120 171 -173 31 -109 36 hvcurveto
          99 vlineto
          16 -8 12 -15 3 -32 rrcurveto
          239 hlineto
          -9 140 -101 79 -160 9 rrcurveto
          81 -51 -80 vlineto
          -148 -6 -126 -73 -137 vvcurveto
          -174 164 -32 110 -31 vhcurveto
          -99 vlineto
          -20 9 -14 18 -2 32 rrcurveto
          -236 hlineto
          9 -144 113 -75 150 -13 rrcurveto
          96 209 rmoveto
          -26 -19 -14 -26 -2 vhcurveto
          89 vlineto
          27 -12 18 -14 -21 vvcurveto
          -132 310 rmoveto
          22 12 11 24 4 vhcurveto
          -84 vlineto
          -22 12 -14 15 20 vvcurveto
          endchar
        </CharString>
        <CharString name="dotaccent">
          -490 95 620 rmoveto
          -101 callsubr
          endchar
        </CharString>
        <CharString name="dotlessi">
          129 callgsubr
          endchar
        </CharString>
        <CharString name="dottedcircle">
          -31 557 409 -31 callgsubr
          -376 -286 -31 callgsubr
          98 -76 -31 callgsubr
          -143 189 -31 callgsubr
          267 -203 -31 callgsubr
          -252 324 -31 callgsubr
          367 -278 -31 callgsubr
          -291 377 -31 callgsubr
          364 -281 -31 callgsubr
          -247 323 -31 callgsubr
          257 -203 -31 callgsubr
          -136 188 -31 callgsubr
          endchar
        </CharString>
        <CharString name="doubledanda">
          13 276 callgsubr
          109 hmoveto
          -740 203 740 vlineto
          endchar
        </CharString>
        <CharString name="dvA">
          165 210 493 rmoveto
          -163 49 vlineto
          -14 callgsubr
          203 105 callsubr
          -280 -60 callsubr
          endchar
        </CharString>
        <CharString name="dvAA">
          499 210 493 rmoveto
          -163 49 vlineto
          -14 callgsubr
          203 265 callsubr
          -615 -60 callsubr
          endchar
        </CharString>
        <CharString name="dvAI">
          -29 332 19 rmoveto
          147 102 80 144 hvcurveto
          72 callsubr
          71 169 -83 89 callgsubr
          -402 -169 80 hlineto
          244 callsubr
          vhcurveto
          endchar
        </CharString>
        <CharString name="dvAU">
          234 callgsubr
          -89 vlineto
          335 -174 -25 16 -167 55 callgsubr
          -348 -60 callsubr
          -49 -163 49 hlineto
          -14 callgsubr
          hlineto
          endchar
        </CharString>
        <CharString name="dvAbbreviationsign">
          -217 234 500 rmoveto
          -104 -73 -71 -101 -100 73 -71 104 103 71 71 100 101 -71 71 -103 hvcurveto
          -119 vmoveto
          30 22 -22 -31 -31 -22 -21 -30 -32 -24 21 31 31 24 22 32 hvcurveto
          endchar
        </CharString>
        <CharString name="dvAcandra">
          170 210 493 rmoveto
          -163 49 vlineto
          -14 callgsubr
          203 105 callsubr
          -280 -60 callsubr
          689 554 17 callgsubr
        </CharString>
        <CharString name="dvAnusvara">
          -682 -55 912 9 callgsubr
        </CharString>
        <CharString name="dvAnusvara.amI">
          -682 254 912 9 callgsubr
        </CharString>
        <CharString name="dvAvagraha">
          -72 336 37 rmoveto
          105 83 56 106 hvcurveto
          184 -205 44 56 vvcurveto
          16 13 2 11 vhcurveto
          191 171 -243 hlineto
          -107 -73 -55 -102 hvcurveto
          -181 205 -46 -58 vvcurveto
          -17 -12 -6 -22 vhcurveto
          -237 -170 hlineto
          endchar
        </CharString>
        <CharString name="dvB">
          -313 587 288 rmoveto
          128 -86 110 -186 -179 -94 -108 -130 -138 94 -112 179 185 87 113 137 vhcurveto
          -266 101 rmoveto
          -77 callgsubr
          271 182 -80 callsubr
          -603 -169 vlineto
          332 -395 -33 callgsubr
          endchar
        </CharString>
        <CharString name="dvBA">
          5 622 hmoveto
          -6 callsubr
          -709 -169 437 144 callgsubr
          -142 -102 -98 -138 -145 102 -104 142 94 callsubr
          endchar
        </CharString>
        <CharString name="dvBH">
          -123 6 callgsubr
          205 166 -205 7 callgsubr
        </CharString>
        <CharString name="dvBHA">
          208 6 callgsubr
          98 -305 161 callgsubr
          -269 -98 7 callgsubr
        </CharString>
        <CharString name="dvBH_LA">
          796 6 callgsubr
          81 vlineto
          -1 -13 -1 -14 -14 vvcurveto
          77 callgsubr
          175 7 12 0 1 16 vhcurveto
          112 callgsubr
          -9 -12 -86 callsubr
          42 48 -15 callgsubr
          294 callgsubr
          15 12 0 7 hhcurveto
          -62 callsubr
          -890 -169 530 -67 vlineto
          -52 -14 -35 -31 -22 -41 rrcurveto
          -4 hlineto
          57 -31 -55 37 -90 hhcurveto
          -50 -50 -13 -28 -42 hvcurveto
          -177 25 hlineto
          11 callsubr
        </CharString>
        <CharString name="dvBH_NA">
          720 6 callgsubr
          82 vlineto
          -2 -13 -1 -13 -14 216 callgsubr
          -322 204 105 callsubr
          -813 -169 532 -80 -278 hlineto
          -41 -40 -7 -13 -35 hvcurveto
          -217 25 hlineto
          -84 callsubr
          262 -11 106 callsubr
        </CharString>
        <CharString name="dvBH_R">
          -123 134 callsubr
          237 71 rmoveto
          21 208 vlineto
          -452 -416 rlineto
          220 hlineto
          234 236 rlineto
          342 -210 17 vlineto
          68 callgsubr
          -55 -46 vlineto
          -133 -113 -64 -147 191 callgsubr
        </CharString>
        <CharString name="dvBH_RA">
          208 134 callsubr
          237 71 rmoveto
          21 132 -70 vlineto
          -376 -346 rlineto
          220 hlineto
          167 168 rlineto
          -69 183 571 78 169 -272 -261 -132 17 vlineto
          68 callgsubr
          -55 -46 vlineto
          -133 -113 -64 -147 191 callgsubr
        </CharString>
        <CharString name="dvBH_R_YA">
          627 134 callsubr
          626 7 rmoveto
          -76 -40 41 47 -2 hvcurveto
          109 18 31 77 -69 callgsubr
          -389 64 rmoveto
          21 70 vlineto
          3 -39 8 -35 13 -31 -338 -311 rcurveline
          220 hlineto
          208 203 rlineto
          -27 43 53 -14 63 22 callgsubr
          -129 25 hlineto
          68 callgsubr
          -63 -46 vlineto
          -133 -113 -62 -141 191 callgsubr
        </CharString>
        <CharString name="dvBH_VA">
          533 6 callgsubr
          75 218 callgsubr
          145 151 callgsubr
          -627 -169 352 183 callgsubr
          -59 -48 -17 -29 -36 hvcurveto
          -153 25 hlineto
          -84 callsubr
          353 -74 rmoveto
          -49 -30 34 42 217 callsubr
          hvcurveto
          endchar
        </CharString>
        <CharString name="dvBH_YA">
          627 6 callgsubr
          67 vlineto
          -148 14 97 -94 161 22 callgsubr
          -125 25 hlineto
          -84 callsubr
          385 -45 rmoveto
          -76 -40 41 47 -2 hvcurveto
          109 18 31 77 -69 callgsubr
          endchar
        </CharString>
        <CharString name="dvB_BA">
          393 321 389 rmoveto
          -77 callgsubr
          689 -389 rmoveto
          -6 callsubr
          -1097 -169 825 144 callgsubr
          -66 -57 -21 -37 -43 hvcurveto
          37 -44 -64 23 -85 -40 callgsubr
          84 64 24 38 45 hvcurveto
          -39 43 57 -22 66 hhcurveto
          239 callsubr
          -493 176 -33 callgsubr
          397 6 rmoveto
          -60 -51 41 65 8 1 8 2 8 hvcurveto
          168 -114 rlineto
          -10 -17 -20 -6 -23 hhcurveto
          213 vmoveto
          -29 callsubr
          endchar
        </CharString>
        <CharString name="dvB_BHA">
          595 667 208 115 callgsubr
          241 69 rmoveto
          28 99 -305 204 105 callsubr
          -281 -269 -99 25 vlineto
          137 -53 116 -175 -29 246 callsubr
          -613 -169 606 0 76 hlineto
          2 5 5 3 7 hhcurveto
          22 8 -18 -24 hvcurveto
          -63 -43 vlineto
          -51 -49 -10 -21 -40 hvcurveto
          52 -44 -73 34 -103 -40 callgsubr
          79 61 21 34 44 hvcurveto
          -37 42 59 -20 71 hhcurveto
          158 79 95 146 hvcurveto
          -587 112 rmoveto
          -77 callgsubr
          -213 vmoveto
          -81 callsubr
          endchar
        </CharString>
        <CharString name="dvB_BH_RA">
          615 321 389 rmoveto
          -77 callgsubr
          -213 vmoveto
          -81 callsubr
          346 49 rmoveto
          -29 -21 16 28 31 25 17 34 hvcurveto
          45 -32 hlineto
          -33 -13 -27 -41 vhcurveto
          -2 346 rmoveto
          4 5 6 2 9 hhcurveto
          26 10 -18 -25 hvcurveto
          -55 -46 vlineto
          -54 -50 -11 -22 -41 hvcurveto
          49 -45 -71 31 -99 -40 callgsubr
          87 65 25 41 45 hvcurveto
          -29 41 54 -16 63 hhcurveto
          153 82 100 137 hvcurveto
          21 131 -70 vlineto
          -376 -346 rlineto
          220 hlineto
          168 169 rlineto
          -70 183 105 callsubr
          -272 -261 -131 17 vlineto
          254 callsubr
          -30 246 callsubr
          -612 -169 hlineto
          endchar
        </CharString>
        <CharString name="dvB_DA">
          319 1011 254 callgsubr
          -1023 -169 723 -61 -15 hlineto
          -72 -61 -18 -34 -46 hvcurveto
          42 -45 -67 26 -91 -40 callgsubr
          80 61 21 35 44 hvcurveto
          -34 39 50 -16 50 156 callgsubr
          -596 -395 -35 callgsubr
        </CharString>
        <CharString name="dvB_DHA">
          425 190 callsubr
          811 397 rmoveto
          281 callgsubr
          vlineto
          -93 -53 -61 -91 -50 -27 15 28 226 callgsubr
          vhcurveto
          -92 callsubr
          -24 -22 -3 -6 -21 vhcurveto
          -565 -169 435 293 callsubr
          -43 -12 -54 -36 -12 -68 rrcurveto
          -1 hlineto
          -1 -8 -1 -8 -3 -8 -173 118 rcurveline
          14 20 24 7 27 hhcurveto
          19 11 -1 -3 16 hvcurveto
          132 vlineto
          6 -24 -25 1 -19 hhcurveto
          -155 -107 -101 -145 -160 128 -84 142 77 66 25 49 45 hvcurveto
          -31 42 58 -16 63 hhcurveto
          89 65 25 46 43 hvcurveto
          -136 -27 callgsubr
        </CharString>
        <CharString name="dvB_DH_VA">
          797 190 callsubr
          1088 397 rmoveto
          76 169 -603 -169 328 -106 hlineto
          -44 callgsubr
          -24 -22 -3 -6 -21 vhcurveto
          -565 -169 435 293 callsubr
          -43 -12 -54 -36 -12 -68 rrcurveto
          -1 hlineto
          -1 -8 -1 -8 -3 -8 -173 118 rcurveline
          14 20 24 7 27 hhcurveto
          19 11 -1 -3 16 hvcurveto
          132 vlineto
          6 -24 -25 1 -19 hhcurveto
          -155 -107 -101 -145 -160 128 -84 142 77 66 25 49 45 hvcurveto
          -34 46 66 -15 77 hhcurveto
          102 62 33 48 39 hvcurveto
          137 callgsubr
        </CharString>
        <CharString name="dvB_JA">
          546 321 176 -33 callgsubr
          918 395 -80 callsubr
          -1250 -169 970 -90 -267 -156 vlineto
          39 callsubr
          148 78 94 134 4 hvcurveto
          68 -308 61 callgsubr
          -842 -182 rmoveto
          56 callsubr
        </CharString>
        <CharString name="dvB_JHA">
          697 321 176 rmoveto
          -59 -52 41 65 8 1 8 1 8 hvcurveto
          169 -115 rlineto
          -10 -18 -20 -5 -22 hhcurveto
          366 163 rmoveto
          -21 -10 8 14 15 12 8 19 hvcurveto
          253 187 173 -232 hlineto
          201 -339 rmoveto
          -6 callsubr
          -1401 -169 755 -43 -103 162 callsubr
          hvcurveto
          -22 vlineto
          -34 -7 -31 -13 -25 vhcurveto
          -179 123 rlineto
          12 19 23 6 26 hhcurveto
          27 21 -3 -7 21 hvcurveto
          135 vlineto
          6 -25 -26 3 -29 -40 callgsubr
          132 81 73 102 32 hvcurveto
          22 -8 23 -5 22 -1 rrcurveto
          -2 33 76 0 47 hhcurveto
          39 14 -15 -21 -20 -13 -13 -26 -24 -19 12 28 -1 hvcurveto
          -173 -257 183 94 hlineto
          -13 21 36 -12 44 hhcurveto
          100 59 63 89 20 -2 18 -4 17 hvcurveto
          96 -187 hlineto
          endchar
        </CharString>
        <CharString name="dvB_J_YA">
          999 1278 232 rmoveto
          -69 -40 36 43 -7 hvcurveto
          96 26 42 80 85 vvcurveto
          69 111 271 callsubr
          -957 157 rmoveto
          -77 callgsubr
          -213 vmoveto
          -81 callsubr
          1371 395 -80 callsubr
          -1703 -169 1110 -31 vlineto
          -51 -14 -48 -114 vhcurveto
          -279 -116 hlineto
          39 callsubr
          135 76 78 115 16 hvcurveto
          80 hlineto
          -130 29 92 -80 230 callsubr
          17 callsubr
        </CharString>
        <CharString name="dvB_JxA">
          546 1239 -64 callgsubr
          -1250 -169 970 -90 -267 -156 vlineto
          39 callsubr
          148 78 94 134 4 hvcurveto
          68 -308 61 callgsubr
          -404 68 callsubr
          -438 253 -35 callgsubr
        </CharString>
        <CharString name="dvB_LA">
          599 967 5 rmoveto
          175 97 108 151 107 -45 68 -61 38 hvcurveto
          94 159 169 -1303 -169 943 -67 vlineto
          -52 -14 -35 -31 -22 -41 rrcurveto
          50 callgsubr
          41 23 -28 -44 -54 -34 -26 -40 294 callgsubr
          15 12 0 7 hhcurveto
          -646 171 -35 callgsubr
        </CharString>
        <CharString name="dvB_L_YA">
          1064 321 176 -33 callgsubr
          1436 395 -80 callsubr
          -1768 -169 1175 -32 vlineto
          -34 -4 -33 -20 -24 vhcurveto
          44 -39 -54 20 -54 hhcurveto
          -86 -54 -37 -57 -30 hvcurveto
          50 callgsubr
          36 17 -22 -23 6 vhcurveto
          -138 20 95 -87 156 -72 callsubr
          -337 -339 rmoveto
          -72 -39 194 callgsubr
          107 19 273 callgsubr
          70 -87 callgsubr
          -1022 157 rmoveto
          56 callsubr
        </CharString>
        <CharString name="dvB_NA">
          550 612 107 callsubr
          -1254 -169 973 274 callgsubr
          -59 -55 -13 -28 -45 hvcurveto
          46 -44 -70 30 -96 -40 callgsubr
          82 62 22 36 44 hvcurveto
          -37 45 59 -20 60 hhcurveto
          -21 callgsubr
          -845 -395 20 callsubr
          62 44 -42 -60 3 hvcurveto
          -1 -6 0 -7 -7 vvcurveto
          -4 -1 -3 -1 -3 vhcurveto
          -167 115 rlineto
          11 18 20 6 23 hhcurveto
          endchar
        </CharString>
        <CharString name="dvB_R">
          -313 592 -64 callgsubr
          -603 -169 vlineto
          598 -283 rmoveto
          128 -86 110 -186 -179 -94 -108 -130 -130 83 -106 158 -13 vhcurveto
          -88 -107 rlineto
          202 hlineto
          149 207 -3 -1 rlineto
          30 42 14 52 56 vvcurveto
          -266 101 rmoveto
          -77 callgsubr
          -213 vmoveto
          -81 callsubr
          endchar
        </CharString>
        <CharString name="dvB_RA">
          4 426 hmoveto
          196 571 75 169 -708 -169 437 -82 hlineto
          24 -39 -48 11 -53 hhcurveto
          -142 -102 -98 -138 -113 67 -86 100 -29 hvcurveto
          -106 -128 rlineto
          212 hlineto
          111 154 rlineto
          -96 309 -2 callgsubr
        </CharString>
        <CharString name="dvB_SA">
          532 321 389 rmoveto
          -77 callgsubr
          -213 vmoveto
          -81 callsubr
          500 344 1 callgsubr
          -1236 -169 628 -51 vlineto
          -47 -13 -39 -54 -15 vhcurveto
          64 -41 -78 43 -116 -40 callgsubr
          70 56 16 28 43 hvcurveto
          -55 35 62 -36 86 hhcurveto
          142 82 236 callsubr
          -9 18 19 vhcurveto
          68 312 -269 -27 callgsubr
        </CharString>
        <CharString name="dvB_SHA">
          577 923 213 rmoveto
          2 0 7 -1 11 vhcurveto
          -199 -17 hlineto
          -27 -14 -21 -28 -37 -9 233 callsubr
          7 vlineto
          158 132 74 176 150 -99 82 -143 -28 -26 -3 -6 -23 hvcurveto
          -624 -169 688 hlineto
          2 4 3 0 5 hhcurveto
          25 11 -20 -23 -79 -84 -14 -76 hvcurveto
          -28 hlineto
          54 -44 -73 35 -105 -40 callgsubr
          74 58 18 30 43 hvcurveto
          -59 40 68 -33 88 hhcurveto
          145 92 79 140 hvcurveto
          -602 176 rmoveto
          -77 callgsubr
          -213 vmoveto
          -81 callsubr
          873 -176 111 callgsubr
        </CharString>
        <CharString name="dvB_TA">
          421 1115 -64 callgsubr
          -1126 -169 845 298 callsubr
          -67 -63 -14 -32 -50 hvcurveto
          51 -44 -72 33 -102 -40 callgsubr
          69 56 16 27 42 hvcurveto
          -57 49 77 -23 81 hhcurveto
          9 callsubr
          111 -314 61 callgsubr
          -717 -395 -35 callgsubr
        </CharString>
        <CharString name="dvB_VA">
          368 1061 740 rmoveto
          -1072 -169 797 75 callgsubr
          -60 -49 -18 -31 -36 hvcurveto
          36 -45 -63 22 -83 -40 callgsubr
          81 62 22 35 44 hvcurveto
          -34 37 50 -20 62 hhcurveto
          10 callgsubr
          vlineto
          -352 -368 -80 callgsubr
          -388 186 rmoveto
          -77 callgsubr
          -213 vmoveto
          -81 callsubr
          endchar
        </CharString>
        <CharString name="dvB_YA">
          445 746 232 rmoveto
          -61 -35 24 33 -17 hvcurveto
          105 30 31 110 73 vvcurveto
          69 111 86 callgsubr
          -1171 -169 578 -31 vlineto
          -39 -5 -37 -28 -24 vhcurveto
          52 -44 -72 34 -103 -40 callgsubr
          95 70 30 48 44 hvcurveto
          -34 45 60 -19 72 -52 callsubr
          vlineto
          -763 -395 -35 callgsubr
        </CharString>
        <CharString name="dvC">
          -248 425 344 rmoveto
          130 callgsubr
          vlineto
          173 callsubr
          -125 99 -60 144 193 105 117 192 -1 vhcurveto
          -177 hlineto
          122 callsubr
          293 227 -80 callsubr
          -683 250 callsubr
        </CharString>
        <CharString name="dvCA">
          83 776 -64 callgsubr
          -787 -169 506 -192 vlineto
          -86 -31 -51 -68 -2 vhcurveto
          -42 -1 -31 18 26 callgsubr
          -115 86 -68 114 68 57 21 41 38 vhcurveto
          -134 -27 callgsubr
        </CharString>
        <CharString name="dvCH">
          96 callsubr
          -153 146 -70 204 182 callsubr
          81 callgsubr
        </CharString>
        <CharString name="dvCHA">
          96 callsubr
          -153 146 -70 204 204 callsubr
          vhcurveto
          57 vlineto
          -265 -382 -75 callsubr
          endchar
        </CharString>
        <CharString name="dvCH_R">
          80 callgsubr
          81 callgsubr
        </CharString>
        <CharString name="dvCH_RA">
          80 callgsubr
          97 -43 71 -74 31 vhcurveto
          57 vlineto
          -265 -382 -75 callsubr
          endchar
        </CharString>
        <CharString name="dvCH_R_YA">
          0 callgsubr
          -107 71 -66 112 -30 vhcurveto
          -97 -131 rlineto
          63 callgsubr
          -102 136 60 20 47 31 34 41 rlinecurve
          216 callsubr
        </CharString>
        <CharString name="dvCH_YA">
          0 callgsubr
          -153 146 -70 204 147 105 43 74 61 vhcurveto
          216 callsubr
        </CharString>
        <CharString name="dvC_CA">
          427 392 240 rmoveto
          -40 -29 17 36 35 28 16 28 hvcurveto
          125 hlineto
          -10 -13 -8 -15 -5 -16 rrcurveto
          -37 -16 -33 -23 -40 hhcurveto
          727 331 -80 callsubr
          -1130 -169 849 202 callsubr
          -717 -159 110 hlineto
          173 callsubr
          -125 89 -60 130 71 54 23 44 40 vhcurveto
          -42 36 57 -23 66 hhcurveto
          68 57 21 41 38 hvcurveto
          -134 -27 callgsubr
        </CharString>
        <CharString name="dvC_CHA">
          565 825 189 -3 callsubr
          rrcurveto
          -70 57 113 -33 140 157 callsubr
        </CharString>
        <CharString name="dvC_CH_VA">
          565 827 -137 rmoveto
          -47 -28 34 42 41 27 36 51 hvcurveto
          0 vlineto
          20 25 1 3 24 hvcurveto
          -86 vlineto
          -41 -29 -30 -43 vhcurveto
          -2 326 -3 callsubr
          25 -30 36 -24 43 -17 rrcurveto
          -36 -36 -19 -51 -54 vvcurveto
          -105 74 -94 137 51 44 16 34 31 vhcurveto
          -97 181 417 vlineto
          84 52 43 83 102 vvcurveto
          97 -43 71 -74 31 vhcurveto
          57 vlineto
          endchar
        </CharString>
        <CharString name="dvC_MA">
          642 1053 471 rmoveto
          -94 100 94 hlineto
          -336 -363 -95 callsubr
          618 363 -80 callsubr
          -1346 -169 780 -100 -44 vlineto
          -113 -99 -48 -108 -26 hvcurveto
          -1 hlineto
          -47 -13 -31 -28 -51 hhcurveto
          -39 -29 18 35 35 28 16 28 hvcurveto
          123 callsubr
          173 callsubr
          -121 97 -64 134 65 54 18 33 41 vhcurveto
          -54 41 70 -31 87 58 callsubr
        </CharString>
        <CharString name="dvC_NA">
          624 664 107 callsubr
          -1306 -169 1025 274 callgsubr
          -121 288 callgsubr
          -12 -45 -30 -25 -48 -1 rrcurveto
          -41 -1 -31 17 26 callgsubr
          -122 104 -63 138 62 53 19 34 40 vhcurveto
          -55 45 72 -29 73 hhcurveto
          -17 callsubr
        </CharString>
        <CharString name="dvC_R">
          -248 672 -64 callgsubr
          -683 -169 vlineto
          436 -227 rmoveto
          130 callgsubr
          vlineto
          173 callsubr
          -113 81 -60 122 -10 vhcurveto
          -97 -118 rlineto
          218 hlineto
          155 216 4 5 3 4 4 5 rlinecurve
          1 vlineto
          0 vlineto
          33 50 17 66 78 vvcurveto
          -177 hlineto
          122 callsubr
          endchar
        </CharString>
        <CharString name="dvC_RA">
          83 776 -64 callgsubr
          -787 -169 506 -192 vlineto
          -86 -31 -51 -68 -2 vhcurveto
          -42 -1 -31 18 26 callgsubr
          -83 50 -57 74 -23 vhcurveto
          -114 -138 rlineto
          218 hlineto
          129 181 2 2 2 2 2 1 rlinecurve
          -140 -27 callgsubr
        </CharString>
        <CharString name="dvC_YA">
          535 814 232 rmoveto
          -79 callsubr
          -1239 -169 646 285 callsubr
          -17 -2 -16 -1 -17 -5 -78 -31 -44 -63 -2 rrcurveto
          -41 -1 -31 18 26 callgsubr
          -125 98 -60 144 81 63 26 48 43 vhcurveto
          -52 47 70 -29 91 -76 callsubr
        </CharString>
        <CharString name="dvCandrabindu">
          -682 84 24 callgsubr
        </CharString>
        <CharString name="dvD">
          -70 698 -325 -49 callsubr
          132 896 16 callgsubr
          endchar
        </CharString>
        <CharString name="dvDA">
          -69 623 571 16 callgsubr
          endchar
        </CharString>
        <CharString name="dvDA_mvR">
          -71 587 197 rmoveto
          -170 hlineto
          -45 -24 -33 -60 -40 -18 12 20 15 9 14 37 vhcurveto
          33 148 -23 hlineto
          -35 -26 3 26 25 26 3 34 hvcurveto
          196 186 106 169 -643 -169 343 -46 -89 hlineto
          -99 -80 -43 -101 -65 46 -48 58 -15 hvcurveto
          -4 vlineto
          -69 -16 -34 -47 -57 vvcurveto
          -112 115 -49 139 166 101 79 150 1 vhcurveto
          endchar
        </CharString>
        <CharString name="dvDD">
          -122 535 -305 -49 callsubr
          243 876 -80 callsubr
          -582 -169 291 -66 callsubr
          190 187 hlineto
          endchar
        </CharString>
        <CharString name="dvDDA">
          -122 571 -64 callgsubr
          -582 -169 291 -66 callsubr
          190 187 hlineto
          endchar
        </CharString>
        <CharString name="dvDDH">
          -18 588 -300 -49 callsubr
          294 871 -80 callsubr
          -686 -169 347 -48 callsubr
          endchar
        </CharString>
        <CharString name="dvDDHA">
          -18 675 -64 callgsubr
          -686 -169 347 -48 callsubr
          endchar
        </CharString>
        <CharString name="dvDDH_DDHA">
          -3 690 -64 callgsubr
          -701 262 callsubr
          -85 37 -66 62 -43 hvcurveto
          -62 -39 -37 -64 -84 vvcurveto
          -161 139 -86 170 179 92 69 120 91 -70 64 -113 -98 -65 -44 -82 -11 2 -14 3 -14 vhcurveto
          219 callsubr
          11 9 11 16 18 9 -11 -15 -40 -46 -15 -59 -96 -33 54 62 80 62 43 81 vhcurveto
          0 vlineto
          147 106 69 120 91 -64 64 -117 -99 -66 -43 -83 -11 2 -14 3 -14 hvcurveto
          219 callsubr
          11 8 11 18 17 9 -11 -16 -39 -46 -15 -59 259 callsubr
          endchar
        </CharString>
        <CharString name="dvDDH_R">
          -18 595 -406 -49 callsubr
          287 977 23 callsubr
        </CharString>
        <CharString name="dvDDH_RA">
          -18 675 571 23 callsubr
        </CharString>
        <CharString name="dvDDH_VA">
          -13 680 -64 callgsubr
          -691 262 callsubr
          -90 36 -68 57 -43 hvcurveto
          -49 -35 -28 -56 -64 vvcurveto
          -112 75 -91 139 52 44 18 33 31 vhcurveto
          -135 170 453 vlineto
          34 31 18 41 50 vvcurveto
          91 -64 64 -116 -99 -66 -43 -83 -11 2 -14 3 -14 vhcurveto
          219 callsubr
          11 8 11 17 17 9 -11 -16 -39 -46 -15 -58 259 callsubr
          -164 -680 rmoveto
          -47 -28 32 39 57 50 19 50 17 17 1 1 16 hvcurveto
          -75 vlineto
          -41 -28 -33 -47 vhcurveto
          endchar
        </CharString>
        <CharString name="dvDDH_YA">
          674 1291 hmoveto
          -6 callsubr
          -1378 -169 347 -42 callsubr
          371 hlineto
          26 28 -12 -33 -27 -25 -13 -29 hvcurveto
          -56 -19 hlineto
          -180 118 -63 113 69 47 22 33 32 vhcurveto
          -100 vlineto
          -105 196 rmoveto
          -41 -23 17 20 -10 hvcurveto
          63 16 43 41 71 vvcurveto
          98 -62 65 -169 vhcurveto
          -260 47 564 -261 hlineto
          -80 -53 -34 -52 vhcurveto
          endchar
        </CharString>
        <CharString name="dvDDHxA">
          -18 675 -64 callgsubr
          -686 -169 347 -48 callsubr
          -53 -746 -28 callgsubr
        </CharString>
        <CharString name="dvDD_DDA">
          -111 582 -64 callgsubr
          -593 -169 304 186 callgsubr
          -193 hlineto
          -45 25 -36 38 -24 vhcurveto
          -31 -21 -18 -31 -40 vvcurveto
          -103 88 -37 136 31 39 0 -36 -23 -19 -13 -33 -31 -29 13 29 -3 vhcurveto
          -193 hlineto
          -114 7 111 -58 140 hhcurveto
          151 90 59 109 124 -94 34 -145 -36 -22 1 20 14 12 6 25 164 96 59 108 261 callgsubr
          hvcurveto
          297 callgsubr
        </CharString>
        <CharString name="dvDD_DDHA">
          -103 581 -64 callgsubr
          -591 175 callgsubr
          186 callgsubr
          -194 hlineto
          -48 28 -36 42 -24 vhcurveto
          -62 -36 -37 -62 -85 vvcurveto
          -165 139 -82 166 172 88 71 118 91 -70 64 -112 -99 -64 -44 -82 -10 2 -15 3 -14 vhcurveto
          219 callsubr
          12 9 10 15 18 9 -11 -15 -40 -46 -15 -58 -96 -33 51 58 74 56 40 76 10 vhcurveto
          149 19 78 48 101 vvcurveto
          261 callgsubr
          vhcurveto
          297 callgsubr
        </CharString>
        <CharString name="dvDD_R">
          -122 537 -411 -49 callsubr
          241 982 31 callgsubr
        </CharString>
        <CharString name="dvDD_RA">
          -122 571 571 31 callgsubr
        </CharString>
        <CharString name="dvDD_VA">
          -101 281 -142 rmoveto
          -37 -30 27 43 54 35 29 54 15 15 1 1 14 hvcurveto
          -97 vlineto
          -33 -27 -25 -39 vhcurveto
          311 713 -80 callsubr
          -603 -169 304 -44 -52 vlineto
          -105 -78 -49 -96 -143 136 -17 73 46 39 -2 -38 -25 -19 -13 -33 -31 -27 15 23 -5 hvcurveto
          -194 hlineto
          -48 28 -44 48 -31 vhcurveto
          -50 -32 -28 -56 -65 vvcurveto
          -110 75 -79 115 47 40 13 26 29 vhcurveto
          -104 170 439 vlineto
          17 25 9 30 35 vvcurveto
          111 -78 45 -121 8 vhcurveto
          -53 4 -34 -9 31 vvcurveto
          19 16 6 18 vhcurveto
          297 callgsubr
        </CharString>
        <CharString name="dvDD_YA">
          549 1166 hmoveto
          -6 callsubr
          -1253 -169 291 -66 callsubr
          363 hlineto
          21 26 -11 -28 -26 -23 -12 -25 hvcurveto
          -62 -19 hlineto
          -180 118 -63 113 69 47 22 34 32 vhcurveto
          -101 vlineto
          -105 196 rmoveto
          -41 -22 17 20 -11 hvcurveto
          71 17 35 51 59 vvcurveto
          94 -62 67 -169 vhcurveto
          -185 50 489 -260 hlineto
          -81 -53 -34 -52 vhcurveto
          endchar
        </CharString>
        <CharString name="dvDDxA">
          -122 571 -64 callgsubr
          -582 -169 291 -66 callsubr
          190 187 hlineto
          -60 -752 -28 callgsubr
        </CharString>
        <CharString name="dvDH">
          55 callsubr
          -132 120 -56 156 201 129 104 159 vhcurveto
          endchar
        </CharString>
        <CharString name="dvDHA">
          62 765 571 rmoveto
          281 callgsubr
          vlineto
          -93 -53 -61 -91 -50 -27 15 28 -35 callsubr
          -123 106 -63 125 89 65 25 46 43 vhcurveto
          -136 -27 callgsubr
        </CharString>
        <CharString name="dvDH_MA">
          643 487 313 rmoveto
          0 vlineto
          -4 -15 rlineto
          -42 -13 -38 -25 -75 -44 callsubr
          110 -56 147 87 72 17 34 52 vhcurveto
          -50 42 68 -28 83 hhcurveto
          158 79 95 146 hvcurveto
          28 95 -305 205 105 callsubr
          -821 -169 255 -100 -44 vlineto
          -114 -99 -49 -109 -26 hvcurveto
          231 -105 85 callgsubr
          -95 100 95 hlineto
          endchar
        </CharString>
        <CharString name="dvDH_NA">
          603 1296 570 rmoveto
          170 -781 -170 501 -79 -279 vlineto
          -120 288 callgsubr
          -1 -3 rlineto
          -51 -14 -40 -27 -75 -44 callsubr
          120 -56 137 88 68 26 50 45 vhcurveto
          -66 44 77 -34 81 264 callgsubr
          92 -322 204 570 hlineto
          -554 -304 106 callsubr
        </CharString>
        <CharString name="dvDH_N_YA">
          1044 1737 -64 callgsubr
          -1246 -169 653 206 callsubr
          -283 hlineto
          -113 -101 -49 -107 -31 hvcurveto
          -45 -19 -38 -25 -73 -44 callsubr
          120 -56 137 78 63 20 40 44 vhcurveto
          -77 41 85 -41 87 264 callgsubr
          94 hlineto
          -139 28 93 -86 143 -52 callsubr
          vlineto
          -999 -339 113 callsubr
          662 hmoveto
          -60 -39 36 47 -16 hvcurveto
          95 29 42 77 81 -5 callgsubr
          endchar
        </CharString>
        <CharString name="dvDH_R">
          55 callsubr
          -131 119 -56 155 -1 vhcurveto
          -115 -138 rlineto
          218 hlineto
          178 248 rlineto
          33 42 18 52 59 vvcurveto
          endchar
        </CharString>
        <CharString name="dvDH_RA">
          62 489 hmoveto
          -77 callsubr
          72 281 callgsubr
          hlineto
          -93 -53 -61 -91 -50 -27 15 28 -35 callsubr
          -104 79 -59 102 -15 vhcurveto
          -123 -148 rlineto
          218 hlineto
          152 211 rlineto
          endchar
        </CharString>
        <CharString name="dvDH_VA">
          423 1042 571 rmoveto
          76 169 -603 -169 328 -106 hlineto
          34 -33 -47 18 -55 hhcurveto
          -127 -75 -80 -108 -16 hvcurveto
          -1 -5 rlineto
          -61 -14 -52 -32 -66 -44 callsubr
          110 -56 147 102 62 33 48 39 vhcurveto
          137 callgsubr
        </CharString>
        <CharString name="dvDH_YA">
          528 1221 -64 callgsubr
          -706 -169 113 -31 vlineto
          -66 -15 -60 -113 vhcurveto
          -8 280 callsubr
          vvcurveto
          -66 -38 -48 -92 77 callsubr
          -132 120 -56 156 92 74 30 52 51 vhcurveto
          -52 46 71 -30 91 -72 callsubr
          -337 -339 rmoveto
          -71 -41 194 callgsubr
          246 callgsubr
          -69 callgsubr
          endchar
        </CharString>
        <CharString name="dvD_BA">
          147 callgsubr
          -114 77 -101 141 58 49 21 44 32 vhcurveto
          47 callgsubr
        </CharString>
        <CharString name="dvD_BHA">
          810 698 -325 -49 callsubr
          132 896 16 callgsubr
          353 -363 rmoveto
          -27 -22 15 33 33 26 16 37 hvcurveto
          37 -39 hlineto
          -32 -14 -26 -37 vhcurveto
          241 69 rmoveto
          28 98 -305 204 571 78 169 -282 -269 -98 7 callgsubr
        </CharString>
        <CharString name="dvD_B_RA">
          147 callgsubr
          -86 44 -79 82 -33 vhcurveto
          -98 -116 rlineto
          208 hlineto
          118 160 1 1 1 1 1 2 rlinecurve
          47 callgsubr
        </CharString>
        <CharString name="dvD_DA">
          -94 545 -108 rmoveto
          271 -169 vlineto
          -24 -16 -24 -45 -40 -13 18 16 17 11 12 30 vhcurveto
          39 143 -35 hlineto
          -30 -20 9 21 24 22 6 29 hvcurveto
          161 190 130 169 -611 -169 281 -56 hlineto
          -7 -8 0 -7 hhcurveto
          -103 -93 -35 -106 -65 44 -46 59 -14 hvcurveto
          -4 vlineto
          -65 -16 -37 -50 -61 vvcurveto
          -111 99 -42 79 57 37 17 22 23 vhcurveto
          -112 vlineto
          endchar
        </CharString>
        <CharString name="dvD_DHA">
          250 943 -64 callgsubr
          -954 -169 646 -61 -16 vlineto
          -156 -111 -87 -152 -70 20 -51 31 -37 hvcurveto
          -67 -10 -34 -41 -52 hhcurveto
          215 callsubr
          41 hvcurveto
          166 vlineto
          -186 13 -83 -76 -107 vvcurveto
          -90 59 -44 53 -18 vhcurveto
          83 callgsubr
        </CharString>
        <CharString name="dvD_GA">
          170 callsubr
          -99 158 callsubr
          52 vlineto
          24 6 20 11 16 15 rrcurveto
          -382 187 114 callgsubr
          201 230 hlineto
          endchar
        </CharString>
        <CharString name="dvD_GHA">
          250 307 5 rmoveto
          215 callsubr
          31 15 17 -3 -6 18 hvcurveto
          -3 -15 -1 -16 -17 vvcurveto
          -70 20 -51 31 -37 vhcurveto
          -67 -10 -34 -41 -52 hhcurveto
          636 566 -80 callsubr
          -954 -169 646 -61 -16 vlineto
          -73 -64 -19 -37 -47 hvcurveto
          25 -46 -60 17 -56 hhcurveto
          -156 -70 -73 -99 -90 59 -44 53 -18 hvcurveto
          83 callgsubr
        </CharString>
        <CharString name="dvD_G_RA">
          170 callsubr
          -48 158 callsubr
          1 vlineto
          24 6 20 11 16 15 rrcurveto
          -138 vlineto
          -309 -305 rlineto
          196 hlineto
          125 136 rlineto
          -75 175 114 callgsubr
          201 230 hlineto
          endchar
        </CharString>
        <CharString name="dvD_MA">
          216 230 -163 rmoveto
          43 36 9 29 vhcurveto
          37 -35 hlineto
          -39 -14 -26 -35 -33 -20 21 27 vhcurveto
          288 217 rmoveto
          1 210 rlineto
          -224 hlineto
          -28 -17 14 22 22 17 15 28 hvcurveto
          198 234 130 -517 hlineto
          286 517 -80 callsubr
          -920 -169 305 -61 -23 vlineto
          -127 -95 -58 -148 -134 102 -68 124 hvcurveto
          59 -47 -23 hlineto
          -136 -122 -46 -166 -139 90 -82 143 160 73 98 153 hvcurveto
          16 104 -281 203 963 vlineto
          endchar
        </CharString>
        <CharString name="dvD_NA">
          746 698 -325 -49 callsubr
          317 591 40 callsubr
          -1450 -169 335 -61 -15 vlineto
          -27 callsubr
          629 -80 -278 hlineto
          148 callsubr
        </CharString>
        <CharString name="dvD_R">
          -70 699 -325 -49 callsubr
          131 896 -80 callsubr
          -634 259 callgsubr
          -104 48 -63 64 -30 hvcurveto
          -131 -158 rlineto
          24 callsubr
        </CharString>
        <CharString name="dvD_RA">
          -70 623 -64 callgsubr
          -634 259 callgsubr
          -104 48 -63 64 -30 hvcurveto
          -131 -158 rlineto
          24 callsubr
        </CharString>
        <CharString name="dvD_VA">
          -65 628 -64 callgsubr
          -639 -169 345 -61 -16 vlineto
          -156 -109 -80 -139 -74 27 -53 40 -33 hvcurveto
          124 callsubr
          -243 -660 181 callgsubr
          endchar
        </CharString>
        <CharString name="dvD_YA">
          38 322 174 rmoveto
          -41 -19 12 23 18 14 13 26 hvcurveto
          52 153 -52 hlineto
          -26 -14 13 16 18 16 12 24 hvcurveto
          53 119 99 -265 hlineto
          -97 -66 -35 -66 vhcurveto
          409 397 -80 callsubr
          -741 -169 171 -49 vlineto
          -45 -2 -61 -26 -74 vvcurveto
          -54 36 -37 61 -13 vhcurveto
          -6 vlineto
          -58 -17 -37 -41 -65 vvcurveto
          -104 94 -59 122 85 59 25 41 37 vhcurveto
          -90 200 274 callsubr
        </CharString>
        <CharString name="dvE">
          -29 664 -64 callgsubr
          -675 -169 80 vlineto
          244 callsubr
          147 102 80 144 vhcurveto
          72 callsubr
          vlineto
          endchar
        </CharString>
        <CharString name="dvEcandra">
          -29 664 -64 callgsubr
          -675 -169 80 vlineto
          244 callsubr
          147 102 80 144 vhcurveto
          72 callsubr
          vlineto
          -4 470 17 callgsubr
        </CharString>
        <CharString name="dvEight">
          29 callgsubr
        </CharString>
        <CharString name="dvEyelash">
          -291 410 428 rmoveto
          -13 -23 -28 -12 -42 hhcurveto
          -49 -40 23 62 -5 hvcurveto
          -194 hlineto
          -169 7 121 -61 131 hhcurveto
          77 75 25 36 50 hvcurveto
          1 252 -80 callsubr
          -502 250 callsubr
        </CharString>
        <CharString name="dvEyelash_HA">
          167 815 86 -83 callgsubr
          -870 -169 556 -40 -48 hlineto
          -94 -54 -45 -61 -11 hvcurveto
          -2 -7 -9 -1 -11 hhcurveto
          -46 -30 29 41 hvcurveto
          -193 hlineto
          -146 4 111 -83 118 hhcurveto
          56 35 11 14 24 hvcurveto
          -48 -37 -29 -56 -74 vvcurveto
          -149 104 -89 151 136 103 73 130 8 vhcurveto
          endchar
        </CharString>
        <CharString name="dvEyelash_YA">
          352 631 232 rmoveto
          -79 callsubr
          -1056 -169 463 -31 vlineto
          -62 -12 -57 -96 -6 vhcurveto
          0 vlineto
          -45 -3 -64 24 62 vvcurveto
          -193 hlineto
          7 -172 130 -64 141 -3 rrcurveto
          -121 29 93 -75 144 -76 callsubr
        </CharString>
        <CharString name="dvFive">
          79 callgsubr
        </CharString>
        <CharString name="dvFour">
          134 callgsubr
        </CharString>
        <CharString name="dvG">
          -94 599 -64 callgsubr
          -610 221 callgsubr
          vlineto
          -104 callgsubr
          vlineto
          endchar
        </CharString>
        <CharString name="dvGA">
          177 793 174 callgsubr
          -881 221 callgsubr
          vlineto
          -104 callgsubr
          93 -571 vlineto
          endchar
        </CharString>
        <CharString name="dvGH">
          -322 595 -64 callgsubr
          -606 202 callgsubr
          164 182 96 124 143 vhcurveto
          172 callgsubr
        </CharString>
        <CharString name="dvGHA">
          9 317 108 callsubr
          24 34 hvcurveto
          19 242 callsubr
          -713 202 callgsubr
          113 63 54 18 38 39 vhcurveto
          -143 17 callsubr
        </CharString>
        <CharString name="dvGH_MA">
          571 982 471 rmoveto
          -94 100 94 hlineto
          -336 -363 -95 callsubr
          -328 44 rmoveto
          -31 -25 13 26 24 17 16 33 hvcurveto
          52 163 -36 hlineto
          -46 -14 24 34 hvcurveto
          19 430 -100 -44 vlineto
          -109 -96 -45 -99 -30 hvcurveto
          -4 -10 rlineto
          -55 -22 -37 -10 -38 hhcurveto
          946 319 -80 callsubr
          -1275 97 callgsubr
          87 -61 136 61 59 15 34 43 vhcurveto
          -63 40 74 -37 95 58 callsubr
        </CharString>
        <CharString name="dvGH_NA">
          532 595 266 -104 callsubr
          -277 -14 rmoveto
          -31 -25 150 callsubr
          24 34 hvcurveto
          19 677 274 callgsubr
          -113 -103 -49 -108 -30 hvcurveto
          -6 -15 rlineto
          -57 -22 -37 -10 -38 hhcurveto
          908 319 -80 callsubr
          -1237 97 callgsubr
          85 -61 133 65 65 16 38 44 vhcurveto
          -67 44 78 -35 81 hhcurveto
          -17 callsubr
        </CharString>
        <CharString name="dvGH_R">
          -322 595 -64 callgsubr
          -606 31 callsubr
          -108 79 -61 134 -11 vhcurveto
          -112 -135 rlineto
          217 hlineto
          173 239 rlineto
          0 vlineto
          32 45 17 57 59 vvcurveto
          172 callgsubr
        </CharString>
        <CharString name="dvGH_RA">
          9 317 108 callsubr
          29 34 hvcurveto
          14 242 callsubr
          -713 31 callsubr
          -90 61 -55 81 -19 vhcurveto
          -125 -151 rlineto
          218 hlineto
          132 183 rlineto
          -137 17 callsubr
        </CharString>
        <CharString name="dvGH_YA">
          463 317 108 callsubr
          24 34 hvcurveto
          19 295 272 callgsubr
          -8 hlineto
          -3 -21 -1 -19 -1 -20 rrcurveto
          0 vlineto
          -55 -27 -47 -78 vhcurveto
          425 -20 rmoveto
          -79 callsubr
          -1167 202 callgsubr
          164 73 59 20 33 45 vhcurveto
          -49 46 69 -28 88 -76 callsubr
        </CharString>
        <CharString name="dvG_BA">
          537 1154 hmoveto
          -6 callsubr
          -1241 221 callgsubr
          vlineto
          -104 callgsubr
          462 144 callgsubr
          -142 -102 -98 -138 284 callgsubr
          hvcurveto
          -85 vlineto
          -96 182 rmoveto
          -60 -51 41 65 8 1 8 2 8 hvcurveto
          168 -114 rlineto
          -10 -17 -20 -6 -23 hhcurveto
          213 vmoveto
          -29 callsubr
          endchar
        </CharString>
        <CharString name="dvG_BHA">
          740 812 208 rmoveto
          -28 -21 15 33 33 26 16 -28 callsubr
          -26 -36 vhcurveto
          241 69 185 callgsubr
          -26 -3 -6 -24 vhcurveto
          -756 221 callgsubr
          hlineto
          -104 callgsubr
          315 vlineto
          3 6 8 2 5 hhcurveto
          24 9 -18 -24 hvcurveto
          -63 -43 vlineto
          -133 -113 -66 -150 276 callsubr
          hvcurveto
          endchar
        </CharString>
        <CharString name="dvG_BH_YA">
          1158 812 40 callgsubr
          67 vlineto
          -148 14 97 -94 161 22 callgsubr
          -125 25 hlineto
          167 callsubr
          -29 246 callsubr
          -757 221 callgsubr
          hlineto
          -104 callgsubr
          101 253 callgsubr
          -45 callgsubr
          -43 vlineto
          -133 152 callsubr
          97 146 callsubr
          79 95 146 hvcurveto
          385 -45 rmoveto
          -76 -40 41 47 -2 hvcurveto
          109 18 31 77 -69 callgsubr
          endchar
        </CharString>
        <CharString name="dvG_DA">
          463 1155 254 callgsubr
          -1167 221 callgsubr
          hlineto
          -104 callgsubr
          360 -61 -15 vlineto
          44 callsubr
          endchar
        </CharString>
        <CharString name="dvG_DHA">
          585 1207 hmoveto
          571 72 281 callgsubr
          vlineto
          -93 -53 -61 -91 -50 -27 15 28 226 callgsubr
          vhcurveto
          -92 callsubr
          -24 -22 -3 -6 -21 vhcurveto
          -707 221 callgsubr
          hlineto
          -104 callgsubr
          70 -5 vlineto
          74 callsubr
          -48 -14 -63 -43 -86 vvcurveto
          -123 106 -63 125 89 65 25 46 43 vhcurveto
          -136 vlineto
          endchar
        </CharString>
        <CharString name="dvG_DH_VA">
          939 1556 hmoveto
          -6 callsubr
          -603 -169 328 -106 vlineto
          -44 callgsubr
          -24 -22 -3 -6 -21 vhcurveto
          -707 221 callgsubr
          hlineto
          -104 callgsubr
          70 -5 vlineto
          74 callsubr
          -48 -14 -63 -43 -86 vvcurveto
          -132 110 -56 147 102 62 33 48 39 vhcurveto
          160 callsubr
          vlineto
          -77 203 rmoveto
          -49 -30 34 42 217 callsubr
          hvcurveto
          endchar
        </CharString>
        <CharString name="dvG_DH_YA">
          1042 1321 232 20 callgsubr
          -707 221 callgsubr
          hlineto
          -104 callgsubr
          70 -5 vlineto
          133 callsubr
          vlineto
          endchar
        </CharString>
        <CharString name="dvG_GA">
          709 1326 174 callgsubr
          -1414 221 callgsubr
          vlineto
          -104 callgsubr
          329 -207 vlineto
          -104 callgsubr
          93 -571 vlineto
          endchar
        </CharString>
        <CharString name="dvG_GHA">
          537 845 108 callsubr
          24 34 hvcurveto
          19 242 callsubr
          -1241 221 callgsubr
          vlineto
          -104 callgsubr
          96 -29 vlineto
          -75 35 -39 47 -16 vhcurveto
          -4 vlineto
          -46 -18 -45 -48 -73 vvcurveto
          -121 98 -61 113 63 54 18 38 39 vhcurveto
          -143 17 callsubr
        </CharString>
        <CharString name="dvG_JA">
          727 1420 -64 callgsubr
          -1431 221 callgsubr
          vlineto
          -104 callgsubr
          644 -90 -267 -156 vlineto
          -90 callsubr
          213 callsubr
        </CharString>
        <CharString name="dvG_LA">
          770 1138 5 rmoveto
          -62 callsubr
          -1474 221 callgsubr
          vlineto
          -104 callgsubr
          607 -67 vlineto
          -52 -14 -35 -31 -23 -41 rrcurveto
          -100 callgsubr
          -44 -54 -34 -26 -40 -5 -12 1 1 -9 vhcurveto
          -177 vlineto
          -1 16 12 0 7 hhcurveto
          endchar
        </CharString>
        <CharString name="dvG_MA">
          736 1147 471 rmoveto
          -94 100 94 hlineto
          -336 -363 -95 callsubr
          618 363 -80 callsubr
          -1440 221 callgsubr
          vlineto
          -104 callgsubr
          367 157 callgsubr
        </CharString>
        <CharString name="dvG_NA">
          694 757 107 callsubr
          -1399 221 callgsubr
          vlineto
          -104 callgsubr
          611 138 callgsubr
        </CharString>
        <CharString name="dvG_NNA">
          753 831 291 -14 callsubr
          616 209 callsubr
          -1458 221 callgsubr
          vlineto
          -104 callgsubr
          94 181 callsubr
        </CharString>
        <CharString name="dvG_N_YA">
          1139 757 232 rmoveto
          -8 callgsubr
          -1844 221 callgsubr
          vlineto
          -104 callgsubr
          744 206 callsubr
          -282 hlineto
          -98 callgsubr
          93 hlineto
          -139 28 93 -86 143 -52 callsubr
          vlineto
          endchar
        </CharString>
        <CharString name="dvG_R">
          -94 633 387 rmoveto
          -433 -407 rlineto
          234 hlineto
          199 200 rlineto
          391 vmoveto
          169 -644 -19 callsubr
          vlineto
          endchar
        </CharString>
        <CharString name="dvG_RA">
          176 793 hmoveto
          -6 callsubr
          -880 -19 callsubr
          93 -225 vlineto
          -389 -366 rlineto
          234 hlineto
          160 161 rlineto
          -141 vlineto
          endchar
        </CharString>
        <CharString name="dvG_R_YA">
          615 894 232 rmoveto
          -79 callsubr
          -1319 -19 callsubr
          219 32 callsubr
          -5 0 -5 -4 vvcurveto
          -374 -351 rlineto
          234 hlineto
          188 189 rlineto
          -67 46 77 -39 104 -76 callsubr
        </CharString>
        <CharString name="dvG_SA">
          686 975 520 1 callgsubr
          -1390 221 callgsubr
          vlineto
          -104 callgsubr
          275 -51 vlineto
          57 callsubr
          312 -269 -27 callgsubr
        </CharString>
        <CharString name="dvG_VA">
          512 853 203 -71 callgsubr
          -1216 221 callgsubr
          hlineto
          -104 callgsubr
          434 149 callgsubr
        </CharString>
        <CharString name="dvG_YA">
          615 894 232 rmoveto
          -79 callsubr
          -1319 221 callgsubr
          vlineto
          -104 callgsubr
          219 27 callgsubr
          endchar
        </CharString>
        <CharString name="dvGx">
          -94 599 -64 callgsubr
          -610 221 callgsubr
          vlineto
          -104 callgsubr
          vlineto
          -117 -594 -28 callgsubr
        </CharString>
        <CharString name="dvGxA">
          176 793 174 callgsubr
          -881 221 callgsubr
          vlineto
          -104 callgsubr
          93 -571 vlineto
          -210 -23 -28 callgsubr
        </CharString>
        <CharString name="dvGx_R">
          -94 633 387 rmoveto
          -433 -407 rlineto
          234 hlineto
          199 200 rlineto
          391 vmoveto
          169 -644 -19 callsubr
          vlineto
          -301 -480 -7 callgsubr
          endchar
        </CharString>
        <CharString name="dvGx_RA">
          176 793 hmoveto
          -6 callsubr
          -880 -19 callsubr
          93 -225 vlineto
          -389 -366 rlineto
          234 hlineto
          160 161 rlineto
          -141 vlineto
          -399 91 -7 callgsubr
          endchar
        </CharString>
        <CharString name="dvH">
          -98 551 86 -83 callgsubr
          -606 200 callgsubr
          hlineto
          -105 -56 -56 -73 -45 19 -39 39 -27 hvcurveto
          69 callsubr
          -7 -483 -49 callsubr
          endchar
        </CharString>
        <CharString name="dvHA">
          -98 551 86 -83 callgsubr
          -606 200 callgsubr
          hlineto
          -105 -56 -56 -73 -45 19 -39 39 -27 hvcurveto
          138 callsubr
        </CharString>
        <CharString name="dvHA_mU">
          -98 342 -361 rmoveto
          152 98 77 131 135 -82 75 -162 -52 -48 15 54 41 30 17 26 31 24 -22 -39 hvcurveto
          191 hlineto
          122 -74 99 -167 209 callgsubr
          vhcurveto
          -4 5 -2 6 6 vvcurveto
          20 15 8 19 vhcurveto
          167 183 120 169 -606 200 callgsubr
          hlineto
          256 callsubr
          -38 38 -27 hvcurveto
          -50 -36 -30 -55 -72 vvcurveto
          -154 112 -76 187 49 22 -21 -32 -28 -26 -21 -49 -50 -35 22 48 vhcurveto
          -180 hlineto
          -155 -1 128 -73 136 hhcurveto
          endchar
        </CharString>
        <CharString name="dvHA_mUU">
          -98 324 -197 rmoveto
          -23 hlineto
          -29 -31 12 35 38 37 12 31 88 31 -56 -103 hvcurveto
          -77 164 vlineto
          1 23 1 23 25 vvcurveto
          147 -46 175 -235 vhcurveto
          -34 1 -31 17 51 vvcurveto
          41 30 17 26 31 27 -22 -45 -3 vhcurveto
          191 hlineto
          125 4 -78 102 -167 hhcurveto
          275 callgsubr
          20 15 8 19 vhcurveto
          167 183 120 169 -606 200 callgsubr
          hlineto
          -105 -56 -56 -73 -45 18 -37 38 -27 hvcurveto
          -49 -35 -30 -54 -71 vvcurveto
          -68 25 -51 46 -36 vhcurveto
          -26 -33 -15 -43 -51 vvcurveto
          -132 98 -60 110 vhcurveto
          37 hlineto
          endchar
        </CharString>
        <CharString name="dvHA_mvR">
          0 440 -290 rmoveto
          133 vlineto
          -118 -118 52 140 109 65 65 110 60 36 -5 -16 20 hvcurveto
          1 -14 -13 0 -14 hhcurveto
          -118 -67 -56 -91 -113 94 -38 85 31 30 3 11 32 hvcurveto
          117 vlineto
          -5 -14 -26 -6 -28 hhcurveto
          -30 -28 9 28 22 16 16 33 hvcurveto
          180 hlineto
          147 -1 -85 106 -186 235 callgsubr
          324 183 71 169 -704 196 callgsubr
          -219 173 -122 222 9 vhcurveto
          endchar
        </CharString>
        <CharString name="dvH_LA">
          34 380 -274 rmoveto
          128 vlineto
          -77 -104 50 131 112 67 67 113 69 40 -26 -34 20 hvcurveto
          -12 -8 -10 -11 -7 -13 rrcurveto
          -1 hlineto
          32 -20 -31 20 -48 hhcurveto
          -68 -67 -38 -97 -86 54 -61 99 3 7 0 1 9 hvcurveto
          101 vlineto
          -1 -6 -4 0 -4 hhcurveto
          -22 -16 13 29 21 13 13 17 19 11 -17 -20 hvcurveto
          -13 107 13 vlineto
          20 11 17 19 16 14 -13 -22 -28 -16 -13 -22 -4 -3 0 1 -5 vhcurveto
          -101 vlineto
          -1 9 5 0 5 hhcurveto
          99 54 61 86 68 -34 40 -43 17 hvcurveto
          102 -25 -85 73 -154 235 callgsubr
          325 183 104 169 -738 196 callgsubr
          -208 163 -116 172 8 vhcurveto
          endchar
        </CharString>
        <CharString name="dvH_MA">
          706 274 360 rmoveto
          20 15 8 19 vhcurveto
          167 183 358 -100 -44 hlineto
          -102 -91 -40 -87 -36 hvcurveto
          -251 263 callgsubr
          507 -152 87 callgsubr
          -1410 104 callgsubr
          31 hvcurveto
          246 hlineto
          -92 29 85 -56 117 58 callsubr
        </CharString>
        <CharString name="dvH_NA">
          668 274 360 rmoveto
          20 15 8 19 vhcurveto
          167 183 604 -80 -278 hlineto
          -110 -99 -46 -101 -34 hvcurveto
          -249 263 callgsubr
          455 -94 40 callsubr
          -1371 104 callgsubr
          33 hvcurveto
          250 hlineto
          -95 34 94 -50 96 hhcurveto
          -17 callsubr
        </CharString>
        <CharString name="dvH_NNA">
          43 386 5 rmoveto
          -13 -7 10 16 hvcurveto
          178 vlineto
          7 7 0 7 7 6 0 6 hhcurveto
          -178 vlineto
          -16 -8 -10 -12 vhcurveto
          -4 -279 rmoveto
          135 vlineto
          -75 -99 43 131 65 4 50 40 29 hvcurveto
          -136 vlineto
          -74 43 -61 91 90 43 58 77 vhcurveto
          135 vlineto
          41 -32 1 -57 -76 vvcurveto
          -107 146 107 vlineto
          181 -82 145 -243 -32 -31 -3 -5 -29 vhcurveto
          -18 5 -8 12 13 vvcurveto
          19 15 8 19 vhcurveto
          352 183 87 169 -748 -169 489 -44 -246 hlineto
          -105 -55 -54 -71 -54 27 -44 57 -27 hvcurveto
          -71 -50 -40 -79 -106 268 callsubr
        </CharString>
        <CharString name="dvH_R">
          21 callgsubr
          -11 -473 -49 callsubr
          endchar
        </CharString>
        <CharString name="dvH_RA">
          21 callgsubr
          endchar
        </CharString>
        <CharString name="dvH_VA">
          -19 450 -5 rmoveto
          -26 -16 18 24 24 16 18 26 hvcurveto
          26 -1 14 -18 -21 vvcurveto
          -2 vlineto
          -23 -14 -19 -26 vhcurveto
          -68 -269 rmoveto
          -3 135 rlineto
          -70 -96 43 131 106 63 57 96 64 40 -22 -41 11 hvcurveto
          20 -19 -27 13 -34 hhcurveto
          -81 -55 -51 -80 -69 48 -63 88 38 31 16 26 18 hvcurveto
          -105 145 221 vlineto
          152 -87 124 -204 -22 -21 -2 -4 -21 vhcurveto
          -14 6 -6 11 11 vvcurveto
          19 15 8 19 vhcurveto
          293 183 82 169 -684 -169 427 -44 -184 hlineto
          -105 -55 -54 -71 -54 27 -44 56 -26 hvcurveto
          -66 -50 -44 -79 -107 268 callsubr
        </CharString>
        <CharString name="dvH_YA">
          221 570 23 rmoveto
          -31 -19 11 16 -11 hvcurveto
          36 17 30 38 63 vvcurveto
          109 -86 62 -151 -21 -20 -1 -3 -19 vhcurveto
          -12 6 -5 10 10 vvcurveto
          19 15 8 18 vhcurveto
          255 183 103 -444 hlineto
          -52 -15 -52 -67 vhcurveto
          265 -185 rmoveto
          733 79 169 -925 -169 384 -44 -144 vlineto
          -106 -55 -54 -71 -50 24 -43 49 -26 hvcurveto
          -63 -46 -37 -73 -94 vvcurveto
          -190 157 -107 166 8 vhcurveto
          138 vlineto
          -63 -86 36 108 83 51 46 71 44 23 -16 -24 -25 -14 -16 -54 hvcurveto
          -5 hlineto
          -1 -8 0 -9 -8 vvcurveto
          -109 66 -90 134 56 42 17 29 29 vhcurveto
          -95 vlineto
          endchar
        </CharString>
        <CharString name="dvI">
          -105 589 -64 callgsubr
          -601 44 callgsubr
          94 hlineto
          90 callgsubr
          hlineto
          endchar
        </CharString>
        <CharString name="dvII">
          -105 265 5 rmoveto
          90 callgsubr
          117 169 -123 61 hlineto
          180 callgsubr
          -58 -290 44 callgsubr
          hlineto
          endchar
        </CharString>
        <CharString name="dvII_Anusvara">
          -105 265 5 rmoveto
          90 callgsubr
          117 169 -123 72 hlineto
          53 30 38 51 51 26 -32 -29 3 vhcurveto
          162 hlineto
          142 4 -94 75 -146 hhcurveto
          -197 -70 -139 -108 hvcurveto
          -72 -298 44 callgsubr
          hlineto
          332 906 29 callsubr
        </CharString>
        <CharString name="dvJ">
          -129 712 308 rmoveto
          173 -376 -156 vlineto
          -90 callsubr
          177 263 -80 callsubr
          -723 250 callsubr
        </CharString>
        <CharString name="dvJA">
          190 883 -64 callgsubr
          -894 -169 614 -90 -267 -156 vlineto
          -90 callsubr
          213 callsubr
        </CharString>
        <CharString name="dvJH">
          -127 697 -64 callgsubr
          -708 -86 callgsubr
          177 152 -415 150 callgsubr
          hlineto
          endchar
        </CharString>
        <CharString name="dvJHA">
          200 282 339 rmoveto
          26 callsubr
          144 -232 hlineto
          200 -339 199 callsubr
          -904 -86 callgsubr
          96 -187 hlineto
          endchar
        </CharString>
        <CharString name="dvJH_MA">
          740 1151 471 rmoveto
          -94 100 94 hlineto
          -336 -363 -95 callsubr
          -533 131 rmoveto
          26 callsubr
          395 -100 -44 hlineto
          -104 -92 -41 -91 -35 hvcurveto
          841 232 -80 callsubr
          -1444 -86 callgsubr
          67 hlineto
          -94 28 86 -57 118 58 callsubr
        </CharString>
        <CharString name="dvJH_NA">
          698 282 339 rmoveto
          26 callsubr
          639 -80 -278 hlineto
          -111 -102 -48 -104 -32 hvcurveto
          173 -73 40 callsubr
          -1403 -86 callgsubr
          70 hlineto
          -97 34 95 -51 97 hhcurveto
          -17 callsubr
        </CharString>
        <CharString name="dvJH_R">
          -127 774 -64 callgsubr
          -785 -86 callgsubr
          208 hlineto
          -299 -306 rlineto
          203 hlineto
          142 158 rlineto
          300 -492 vlineto
          26 callsubr
          hlineto
          endchar
        </CharString>
        <CharString name="dvJH_RA">
          297 282 339 rmoveto
          26 callsubr
          242 -232 hlineto
          200 -339 rmoveto
          -6 callsubr
          -1001 -86 callgsubr
          200 -8 hlineto
          -291 -298 rlineto
          203 hlineto
          110 119 rlineto
          endchar
        </CharString>
        <CharString name="dvJH_YA">
          614 282 339 rmoveto
          26 callsubr
          242 -31 hlineto
          66 callgsubr
          vvcurveto
          -6 vlineto
          320 -107 rmoveto
          -79 callsubr
          -1318 -86 callgsubr
          90 hlineto
          -78 44 81 -46 113 -76 callsubr
        </CharString>
        <CharString name="dvJ_BA">
          559 883 182 rmoveto
          -60 -51 41 65 8 1 8 2 8 hvcurveto
          168 -114 rlineto
          -10 -17 -20 -6 -23 hhcurveto
          292 -182 rmoveto
          -6 callsubr
          -1262 -169 990 144 callgsubr
          -57 -50 -16 -27 -40 hvcurveto
          -356 -156 hlineto
          -90 callsubr
          61 hlineto
          -1 -6 0 -7 -7 vvcurveto
          284 callgsubr
          vhcurveto
          -85 vlineto
          -96 395 33 callsubr
          endchar
        </CharString>
        <CharString name="dvJ_DA">
          486 1178 254 callgsubr
          -1190 -169 890 -61 -15 hlineto
          -53 -48 -10 -19 -40 hvcurveto
          -387 -156 hlineto
          -72 callgsubr
          149 92 95 135 4 vhcurveto
          65 hlineto
          -2 -12 -1 -13 -14 vvcurveto
          -160 22 callsubr
        </CharString>
        <CharString name="dvJ_DDA">
          414 1107 -64 callgsubr
          -1118 -169 827 -45 -44 vlineto
          -56 -49 -15 -30 -33 hvcurveto
          -298 -156 hlineto
          -90 callsubr
          62 hlineto
          -97 31 108 -14 60 hhcurveto
          -53 callgsubr
        </CharString>
        <CharString name="dvJ_JA">
          754 1447 -64 callgsubr
          -1458 -169 1178 -90 -267 -156 vlineto
          136 callsubr
          -16 23 44 vhcurveto
          156 -470 -156 vlineto
          -90 callsubr
          66 hlineto
          -134 5 83 -94 165 228 callgsubr
        </CharString>
        <CharString name="dvJ_JHA">
          750 832 339 rmoveto
          26 callsubr
          144 -232 hlineto
          200 -339 199 callsubr
          -1454 -169 836 -43 -45 vlineto
          -56 -49 -15 -32 -34 hvcurveto
          -305 -156 hlineto
          -90 callsubr
          69 hlineto
          25 -75 74 -30 63 -4 rrcurveto
          -2 28 20 0 21 hhcurveto
          40 14 -15 -21 -20 -14 -13 -25 -25 -19 12 28 hvcurveto
          -183 -257 192 94 hlineto
          -13 21 37 -12 44 hhcurveto
          99 60 63 89 20 -2 18 -4 17 hvcurveto
          96 -187 hlineto
          endchar
        </CharString>
        <CharString name="dvJ_J_NYA">
          735 1351 174 callgsubr
          -1439 -169 1161 -91 -814 -155 vlineto
          136 callsubr
          -16 23 44 vhcurveto
          155 -205 -161 vlineto
          -140 84 -99 169 151 93 98 140 1 vhcurveto
          311 hlineto
          25 36 -16 -43 -30 -17 -28 -41 -41 -22 27 33 -4 hvcurveto
          -191 -293 199 107 hlineto
          -26 31 44 -14 50 hhcurveto
          96 81 63 106 50 -17 37 -25 27 hvcurveto
          100 -318 hlineto
          endchar
        </CharString>
        <CharString name="dvJ_J_VA">
          1105 1446 203 -71 callgsubr
          -1809 -169 1534 75 callgsubr
          -51 -43 -13 -23 -34 hvcurveto
          -360 -156 hlineto
          136 callsubr
          -16 23 44 vhcurveto
          156 -470 -156 vlineto
          -90 callsubr
          66 hlineto
          -134 5 83 -94 165 hhcurveto
          52 callgsubr
          hvcurveto
          69 hlineto
          -1 -8 0 -8 -8 1 callsubr
          endchar
        </CharString>
        <CharString name="dvJ_J_YA">
          1207 1486 232 rmoveto
          -69 -39 36 42 -8 hvcurveto
          97 27 42 80 85 vvcurveto
          69 111 86 callgsubr
          -1911 -169 1319 -31 vlineto
          -51 -15 -48 -114 vhcurveto
          -279 -116 hlineto
          183 callsubr
          -31 -17 23 44 vhcurveto
          116 -470 -116 vlineto
          136 callsubr
          -16 23 44 vhcurveto
          116 -205 -122 vlineto
          -140 84 -99 169 133 88 76 112 20 vhcurveto
          75 hlineto
          -112 19 82 -76 147 hhcurveto
          134 89 77 115 19 hvcurveto
          31 27 0 1 22 hvcurveto
          -130 29 92 -80 144 -52 callsubr
          vlineto
          endchar
        </CharString>
        <CharString name="dvJ_KA">
          824 1140 -70 callgsubr
          -1528 -169 955 -46 callgsubr
          -47 -39 -11 -21 -32 hvcurveto
          -358 -156 hlineto
          -90 callsubr
          68 hlineto
          -1 -10 0 -10 -10 vvcurveto
          -134 73 -101 129 -16 callsubr
          vhcurveto
          -100 13 callgsubr
        </CharString>
        <CharString name="dvJ_MA">
          761 1172 473 rmoveto
          -95 98 95 hlineto
          -336 -362 199 callgsubr
          37 -40 hlineto
          -31 -14 -27 -37 vhcurveto
          618 362 -80 callsubr
          -1465 -169 898 -98 -551 -148 vlineto
          136 callsubr
          -16 23 44 vhcurveto
          148 -205 -154 vlineto
          -140 84 -99 169 149 92 95 136 4 vhcurveto
          75 hlineto
          -6 -20 -3 -22 -25 vvcurveto
          -125 96 -81 143 158 79 94 146 vhcurveto
          29 95 -307 17 callsubr
        </CharString>
        <CharString name="dvJ_NA">
          734 784 256 rmoveto
          33 24 24 33 33 24 -24 -33 -32 -24 -24 -33 -34 -23 24 32 vhcurveto
          630 315 -80 callsubr
          -1425 -169 1144 -90 -797 -156 vlineto
          -90 callsubr
          71 hlineto
          -3 -16 -2 -18 -19 vvcurveto
          -147 116 -79 121 116 104 64 134 34 -7 28 -10 24 vhcurveto
          92 -313 61 callgsubr
          endchar
        </CharString>
        <CharString name="dvJ_NY">
          -130 720 -64 callgsubr
          -731 -169 vlineto
          731 -245 rmoveto
          162 -476 -162 52 vlineto
          62 callsubr
          endchar
        </CharString>
        <CharString name="dvJ_NYA">
          185 801 174 callgsubr
          -889 -169 611 -83 -356 -162 52 vlineto
          62 callsubr
          98 -326 hlineto
          endchar
        </CharString>
        <CharString name="dvJ_NY_YA">
          648 927 232 rmoveto
          -63 -34 29 37 -15 hvcurveto
          96 34 38 83 87 -53 callsubr
          -1352 -169 759 -31 vlineto
          -39 -5 -36 -27 -24 vhcurveto
          31 -42 -59 16 -78 hhcurveto
          -293 -162 52 hlineto
          62 callsubr
          32 hlineto
          40 28 -15 -39 16 hvcurveto
          -129 29 86 -80 149 -76 callsubr
        </CharString>
        <CharString name="dvJ_R">
          80 callsubr
          endchar
        </CharString>
        <CharString name="dvJ_RA">
          71 callgsubr
          endchar
        </CharString>
        <CharString name="dvJ_TA">
          592 1285 -64 callgsubr
          -1296 -169 1016 -83 -669 -163 vlineto
          136 callsubr
          -16 23 44 vhcurveto
          163 -205 -169 vlineto
          -140 84 -99 169 150 93 96 138 2 vhcurveto
          85 hlineto
          -12 -26 -6 -30 -34 vvcurveto
          -151 123 -72 135 vhcurveto
          9 callsubr
          111 -314 61 callgsubr
          endchar
        </CharString>
        <CharString name="dvJ_TTA">
          517 1210 -64 callgsubr
          -1221 -169 873 -53 vlineto
          -55 -3 -47 -13 -38 -21 rrcurveto
          -386 -156 hlineto
          -90 callsubr
          66 hlineto
          -2 -14 -1 -14 -15 vvcurveto
          -158 -85 callgsubr
          endchar
        </CharString>
        <CharString name="dvJ_VA">
          541 882 203 -71 callgsubr
          -1245 -169 970 75 callgsubr
          -51 -43 -13 -23 -34 hvcurveto
          -360 -156 hlineto
          -90 callsubr
          69 hlineto
          -1 -8 0 -8 -8 1 callsubr
          endchar
        </CharString>
        <CharString name="dvJ_YA">
          643 922 232 rmoveto
          -69 -40 36 43 -7 hvcurveto
          96 26 43 80 85 vvcurveto
          69 110 -196 vlineto
          -80 -42 143 callgsubr
          -1347 -169 754 -31 vlineto
          -51 -14 -48 -114 vhcurveto
          -279 -116 hlineto
          136 callsubr
          -16 23 44 vhcurveto
          116 -205 -122 vlineto
          -140 84 -99 169 134 89 77 115 18 vhcurveto
          32 26 0 1 23 hvcurveto
          -130 29 92 -80 230 callsubr
          17 callsubr
        </CharString>
        <CharString name="dvJx">
          -129 712 308 rmoveto
          173 -376 -156 vlineto
          -90 callsubr
          177 263 -80 callsubr
          -723 -169 vlineto
          414 68 callsubr
          endchar
        </CharString>
        <CharString name="dvJxA">
          190 883 -64 callgsubr
          -894 -169 614 -90 -267 -156 vlineto
          -90 callsubr
          68 -308 61 callgsubr
          -404 68 callsubr
          endchar
        </CharString>
        <CharString name="dvJx_JxA">
          754 403 -77 rmoveto
          -100 callsubr
          564 hmoveto
          -100 callsubr
          480 648 -80 callsubr
          -1458 -169 1178 -90 -267 -156 vlineto
          136 callsubr
          -16 23 44 vhcurveto
          156 -470 -156 vlineto
          -90 callsubr
          66 hlineto
          -134 5 83 -94 165 228 callgsubr
        </CharString>
        <CharString name="dvJx_R">
          80 callsubr
          -23 94 -7 callgsubr
          endchar
        </CharString>
        <CharString name="dvJx_RA">
          71 callgsubr
          -572 -535 -7 callgsubr
          endchar
        </CharString>
        <CharString name="dvJx_YA">
          643 1336 -64 callgsubr
          -1347 -169 754 -31 vlineto
          -51 -14 -48 -114 vhcurveto
          -279 -116 hlineto
          136 callsubr
          -16 23 44 vhcurveto
          116 -205 -122 vlineto
          -140 84 -99 169 134 89 77 115 18 vhcurveto
          32 26 0 1 23 hvcurveto
          -130 29 92 -80 230 callsubr
          154 callgsubr
          vlineto
          -857 68 callsubr
          519 309 rmoveto
          -69 -40 36 43 -7 hvcurveto
          96 26 43 80 85 vvcurveto
          69 279 callgsubr
        </CharString>
        <CharString name="dvK">
          67 callgsubr
          -68 88 callsubr
          endchar
        </CharString>
        <CharString name="dvKA">
          264 580 -70 callgsubr
          -968 -98 callsubr
          13 callgsubr
        </CharString>
        <CharString name="dvKH">
          41 callgsubr
          196 -271 -68 callsubr
          endchar
        </CharString>
        <CharString name="dvKHA">
          295 658 249 70 callgsubr
          -46 -154 103 callsubr
          -251 71 -23 callsubr
          endchar
        </CharString>
        <CharString name="dvKH_KHA">
          959 604 300 -68 callsubr
          718 -51 rmoveto
          -31 -23 18 36 34 23 19 31 33 17 -25 -28 1 hvcurveto
          -33 -21 -21 -30 vhcurveto
          253 -249 199 callsubr
          -1663 -75 callgsubr
          38 35 7 12 31 hvcurveto
          -78 50 89 -42 116 hhcurveto
          291 callgsubr
          hvcurveto
          -1 9 205 callgsubr
          -1012 166 rmoveto
          -65 callsubr
          458 -71 vlineto
          -33 -6 -27 -16 -19 vhcurveto
          53 -37 -64 32 -82 hhcurveto
          -135 -101 -6 callgsubr
          664 hmoveto
          195 callgsubr
          -112 -76 -90 -116 -38 8 -36 15 -31 hvcurveto
          -17 -15 -26 -15 -44 hhcurveto
          endchar
        </CharString>
        <CharString name="dvKH_MA">
          874 1285 471 290 callsubr
          -681 -271 -68 callsubr
          345 -92 -9 callgsubr
        </CharString>
        <CharString name="dvKH_NA">
          838 901 266 rmoveto
          32 23 24 34 33 24 -24 -32 -33 -24 -23 -33 -34 -23 23 33 vhcurveto
          -297 34 -68 callsubr
          -243 -134 rmoveto
          -65 callsubr
          842 274 callgsubr
          -61 -54 -14 -30 -40 hvcurveto
          38 -39 -57 21 -70 hhcurveto
          -134 -92 -6 callgsubr
          1170 405 -80 callsubr
          -1542 -75 callgsubr
          47 41 10 19 33 hvcurveto
          -54 42 67 -28 73 hhcurveto
          114 97 -2 callsubr
          endchar
        </CharString>
        <CharString name="dvKH_R">
          34 callsubr
          196 -271 -68 callsubr
          endchar
        </CharString>
        <CharString name="dvKH_RA">
          295 912 hmoveto
          -6 callsubr
          -999 45 callgsubr
          163 227 rlineto
          -1 10 10 -1 11 hhcurveto
          161 callsubr
          vlineto
          -51 249 70 callgsubr
          -297 -83 -23 callsubr
          endchar
        </CharString>
        <CharString name="dvKH_SHA">
          843 604 300 -41 callgsubr
        </CharString>
        <CharString name="dvKH_TA">
          687 604 300 -17 callgsubr
        </CharString>
        <CharString name="dvKH_VA">
          638 1256 hmoveto
          571 75 169 -1342 -75 callgsubr
          40 35 7 14 30 hvcurveto
          -45 32 51 -27 73 hhcurveto
          54 99 callgsubr
          vlineto
          -452 300 -68 callsubr
          375 -97 rmoveto
          -49 -29 34 42 42 29 283 callsubr
          -618 -37 rmoveto
          -65 callsubr
          648 183 callgsubr
          -59 -45 -17 -29 -32 hvcurveto
          23 -36 -45 12 -54 hhcurveto
          -134 -92 -6 callgsubr
          endchar
        </CharString>
        <CharString name="dvKH_YA">
          746 604 300 -24 callsubr
        </CharString>
        <CharString name="dvKHx">
          41 callgsubr
          36 -734 rmoveto
          -100 callsubr
          160 463 -68 callsubr
          endchar
        </CharString>
        <CharString name="dvKHxA">
          295 612 95 103 callsubr
          -168 -258 rmoveto
          -100 callsubr
          214 412 70 callgsubr
          -297 -83 -23 callsubr
          endchar
        </CharString>
        <CharString name="dvKHx_MA">
          874 444 -163 rmoveto
          -100 callsubr
          160 463 -68 callsubr
          681 171 290 callsubr
          -336 -363 -9 callgsubr
        </CharString>
        <CharString name="dvKHx_R">
          34 callsubr
          -237 -636 -7 callgsubr
          433 365 -68 callsubr
          endchar
        </CharString>
        <CharString name="dvKHx_RA">
          295 912 hmoveto
          -6 callsubr
          -999 45 callgsubr
          163 227 rlineto
          -1 10 10 -1 11 hhcurveto
          161 callsubr
          vlineto
          -538 -65 -7 callgsubr
          487 314 70 callgsubr
          -297 -83 -23 callsubr
          endchar
        </CharString>
        <CharString name="dvKHx_SA">
          824 480 -170 rmoveto
          -100 callsubr
          124 470 -68 callsubr
          -243 -134 rmoveto
          -65 callsubr
          501 -51 vlineto
          -48 -12 -38 -55 -15 vhcurveto
          56 -38 -68 31 -85 188 callgsubr
          -34 15 -28 hvcurveto
          -18 -15 -27 -16 -45 hhcurveto
          752 354 1 callgsubr
          -1528 -169 214 -48 vlineto
          175 callsubr
          33 31 5 10 28 hvcurveto
          -69 34 73 -47 107 hhcurveto
          142 81 236 callsubr
          -8 18 19 vhcurveto
          68 311 -269 17 callsubr
        </CharString>
        <CharString name="dvKHx_SHA">
          843 480 -170 rmoveto
          -100 callsubr
          124 470 -41 callgsubr
        </CharString>
        <CharString name="dvKHx_TA">
          687 480 -170 rmoveto
          -100 callsubr
          124 470 -17 callgsubr
        </CharString>
        <CharString name="dvKHx_VA">
          638 480 -170 rmoveto
          -100 callsubr
          124 470 -68 callsubr
          375 -97 rmoveto
          -49 -29 34 42 42 29 283 callsubr
          277 -203 rmoveto
          571 75 169 -1342 -75 callgsubr
          40 35 7 14 30 hvcurveto
          -45 32 51 -27 73 hhcurveto
          54 99 callgsubr
          vlineto
          -695 166 rmoveto
          -65 callsubr
          648 183 callgsubr
          -59 -45 -17 -29 -32 hvcurveto
          23 -36 -45 12 -54 hhcurveto
          -134 -92 -6 callgsubr
          endchar
        </CharString>
        <CharString name="dvKHx_YA">
          746 480 -170 rmoveto
          -100 callsubr
          124 470 -24 callsubr
        </CharString>
        <CharString name="dvK_CA">
          628 868 294 rmoveto
          35 28 15 28 vhcurveto
          46 159 -254 hlineto
          -64 -44 -16 -31 -28 hvcurveto
          115 460 -192 vlineto
          -86 -31 -51 -68 -2 vhcurveto
          -42 -1 -31 18 37 vvcurveto
          -552 -80 -106 callgsubr
          1005 357 -80 callsubr
          -1332 -93 callgsubr
          269 vlineto
          45 21 30 51 vhcurveto
          70 hlineto
          -29 -26 -16 -36 -43 vvcurveto
          -115 86 -52 114 68 57 21 41 38 vhcurveto
          -134 17 callsubr
        </CharString>
        <CharString name="dvK_DA">
          584 169 callsubr
          399 -61 -16 hlineto
          -55 -49 -11 -20 -41 hvcurveto
          21 -30 -37 13 -46 207 callsubr
          -264 -247 -106 callgsubr
          961 357 -80 callsubr
          -1288 -89 callgsubr
          41 16 -31 -31 vhcurveto
          0 vlineto
          -2 0 -3 -2 vvcurveto
          -160 107 -67 103 45 37 12 22 25 vhcurveto
          -122 200 311 -189 vlineto
          -35 -20 -28 -38 -37 -24 24 38 41 29 29 51 vhcurveto
          198 235 hlineto
          endchar
        </CharString>
        <CharString name="dvK_JA">
          846 316 88 callsubr
          630 44 rmoveto
          -32 -16 23 44 hvcurveto
          6 vlineto
          84 -60 98 -133 -54 208 callgsubr
          679 234 callsubr
          -1550 -89 callgsubr
          41 16 -26 -30 vhcurveto
          -1 vlineto
          -104 82 -99 168 75 callsubr
          213 callsubr
        </CharString>
        <CharString name="dvK_KA">
          237 callsubr
          -40 -35 -9 -15 -29 hvcurveto
          15 -28 -32 9 -38 207 callsubr
          -264 -247 -106 callgsubr
          919 12 callgsubr
          -68 88 callsubr
          endchar
        </CharString>
        <CharString name="dvK_KHA">
          938 169 callsubr
          265 -48 hlineto
          -28 -5 -23 -10 -19 vhcurveto
          31 -29 -40 19 -56 45 callsubr
          1238 -214 199 callsubr
          -1642 -89 callgsubr
          41 16 -31 -31 vhcurveto
          -2 vlineto
          -177 116 -108 187 291 callgsubr
          vhcurveto
          -1 9 205 callgsubr
          -52 249 rmoveto
          -30 -23 241 callsubr
          -296 -83 rmoveto
          195 callgsubr
          -113 -75 -90 -116 -38 8 -36 15 -31 hvcurveto
          -17 -15 -26 -15 -44 hhcurveto
          endchar
        </CharString>
        <CharString name="dvK_LA">
          892 1115 418 rmoveto
          -3 hlineto
          163 callsubr
          -49 -49 -12 -26 -41 hvcurveto
          18 -25 -30 11 -37 hhcurveto
          -54 -43 -17 -31 -28 hvcurveto
          116 645 63 callsubr
          -799 -204 -106 callgsubr
          264 53 rmoveto
          101 callsubr
          -31 vhcurveto
          0 vlineto
          -4 0 -5 -5 vvcurveto
          77 callgsubr
          175 7 12 0 1 16 vhcurveto
          -84 callgsubr
          -1596 -93 callgsubr
          vlineto
          endchar
        </CharString>
        <CharString name="dvK_MA">
          857 171 callsubr
          -389 -289 0 callsubr
        </CharString>
        <CharString name="dvK_NA">
          816 169 callsubr
          648 -80 -278 hlineto
          -44 -43 -8 -15 -37 hvcurveto
          29 -26 -39 16 -56 207 callsubr
          298 -195 -104 callsubr
          -562 -52 -106 callgsubr
          1193 357 -80 callsubr
          -1520 -89 callgsubr
          38 16 -26 -29 3 vhcurveto
          -1 -6 0 -7 -7 vvcurveto
          3 callsubr
        </CharString>
        <CharString name="dvK_NNA">
          851 169 callsubr
          107 -77 hlineto
          -46 -3 -36 -15 -25 -26 rrcurveto
          -264 -236 -106 callgsubr
          612 77 -14 callsubr
          616 209 callsubr
          -1555 -89 callgsubr
          28 16 -14 -18 8 vhcurveto
          1 -9 2 -9 2 -8 rrcurveto
          -3 1 vlineto
          -92 25 75 -67 131 hhcurveto
          162 78 101 133 hvcurveto
          217 95 -571 -27 callgsubr
        </CharString>
        <CharString name="dvK_PA">
          629 169 callsubr
          98 -69 hlineto
          -42 -5 -33 -15 -23 -25 rrcurveto
          -264 -243 -106 callgsubr
          645 93 rmoveto
          -87 callsubr
          -1334 127 callgsubr
          -17 -21 6 vhcurveto
          0 vlineto
          -98 28 73 -68 115 30 callgsubr
        </CharString>
        <CharString name="dvK_PHA">
          926 169 callsubr
          101 -69 hlineto
          -43 -4 -34 -16 -24 -25 rrcurveto
          -264 -243 -106 callgsubr
          640 93 -36 callgsubr
          -1630 127 callgsubr
          -16 -20 6 vhcurveto
          -98 25 72 -70 114 hhcurveto
          55 43 16 27 30 hvcurveto
          -179 -106 callsubr
          endchar
        </CharString>
        <CharString name="dvK_P_RA">
          629 169 callsubr
          98 -69 hlineto
          -42 -5 -33 -15 -23 -25 rrcurveto
          -264 -243 -106 callgsubr
          645 93 rmoveto
          -87 callsubr
          -1334 -89 callgsubr
          30 17 -17 -21 6 vhcurveto
          0 vlineto
          22 -69 45 -53 69 -22 15 callgsubr
        </CharString>
        <CharString name="dvK_R">
          -5 580 hmoveto
          267 vlineto
          43 3 18 30 38 hhcurveto
          193 callsubr
          hvcurveto
          207 hlineto
          128 -66 107 198 callsubr
          324 169 -915 -169 395 148 callgsubr
          -68 88 callsubr
          endchar
        </CharString>
        <CharString name="dvK_RA">
          264 580 hmoveto
          -22 callsubr
          -968 -169 395 148 callgsubr
          -68 88 callsubr
          endchar
        </CharString>
        <CharString name="dvK_SA">
          798 -67 callsubr
          771 306 1 callgsubr
          -1502 -170 395 -109 vlineto
          -94 callgsubr
          -30 vhcurveto
          -68 vlineto
          8 callsubr
          312 -269 -27 callgsubr
        </CharString>
        <CharString name="dvK_SHA">
          844 316 88 callsubr
          389 289 rmoveto
          -54 -43 -19 -31 -28 hvcurveto
          118 355 vlineto
          2 8 2 0 7 hhcurveto
          28 11 -20 -23 -75 -75 -16 -73 -2 hvcurveto
          40 -28 -45 26 -65 hhcurveto
          484 -290 rmoveto
          -39 callgsubr
          -37 -9 233 callsubr
          7 vlineto
          158 131 74 176 150 -99 82 -142 -28 -26 -3 -6 -24 hvcurveto
          -890 118 callsubr
          -44 vlineto
          -148 99 -92 158 144 92 79 140 vhcurveto
          272 -213 111 callgsubr
        </CharString>
        <CharString name="dvK_SS">
          -104 260 528 -68 callgsubr
          409 146 -217 hlineto
          20 27 13 33 41 -39 callsubr
          endchar
        </CharString>
        <CharString name="dvK_SSA">
          217 260 528 -68 callgsubr
          327 -321 195 105 callsubr
          -272 -273 -135 hlineto
          20 27 13 33 41 -39 callsubr
          endchar
        </CharString>
        <CharString name="dvK_SS_MA">
          783 859 204 rmoveto
          -27 -22 16 33 32 26 16 37 hvcurveto
          37 -38 hlineto
          -33 -14 -26 -37 vhcurveto
          -599 324 -68 callgsubr
          319 hlineto
          -6 -21 -3 -23 -25 vvcurveto
          -134 97 278 callsubr
          -301 205 -6 callsubr
          -855 -169 289 -104 -407 vlineto
          20 27 13 33 41 -39 callsubr
          834 535 rmoveto
          -95 104 95 hlineto
          endchar
        </CharString>
        <CharString name="dvK_SS_M_YA">
          1225 856 194 199 callgsubr
          37 -39 hlineto
          -32 -14 -27 -37 vhcurveto
          -596 334 -68 callgsubr
          319 hlineto
          -8 -23 -4 -26 -30 vvcurveto
          -133 97 146 callsubr
          79 94 147 vhcurveto
          28 91 vlineto
          -137 21 95 -86 154 hhcurveto
          78 60 22 37 41 hvcurveto
          -128 204 105 callsubr
          -1300 -169 289 -113 -412 vlineto
          25 29 16 35 46 -39 callsubr
          883 526 rmoveto
          -147 113 228 -32 hlineto
          -40 -11 -41 -70 vhcurveto
          260 -221 rmoveto
          -73 -40 40 44 -5 hvcurveto
          94 22 46 80 84 vvcurveto
          64 111 -191 100 callsubr
          -90 vhcurveto
          endchar
        </CharString>
        <CharString name="dvK_SS_VA">
          560 260 528 -68 callgsubr
          313 hlineto
          -1 -12 -1 -12 -13 vvcurveto
          -135 78 -108 144 151 callgsubr
          -645 -169 370 183 callgsubr
          -61 -49 -19 -31 -37 hvcurveto
          -194 hlineto
          20 27 13 33 41 -39 callsubr
          541 271 -24 callgsubr
          142 callgsubr
          -46 hvcurveto
          endchar
        </CharString>
        <CharString name="dvK_SS_YA">
          658 260 528 -68 callgsubr
          308 hlineto
          -157 10 110 -101 163 hhcurveto
          73 56 21 35 39 hvcurveto
          -119 205 -6 callsubr
          -738 -169 145 -32 vlineto
          -44 -36 -37 -63 vhcurveto
          -164 hlineto
          25 29 16 35 46 -39 callsubr
          576 300 rmoveto
          -72 -40 47 53 -5 hvcurveto
          105 30 35 88 89 vvcurveto
          32 279 callgsubr
        </CharString>
        <CharString name="dvK_S_DDA">
          1044 -67 callsubr
          772 306 rmoveto
          51 358 -45 -44 vlineto
          -80 -65 -31 -60 -26 hvcurveto
          -154 10 callsubr
          649 222 callsubr
          -1748 -170 395 -109 vlineto
          -94 callgsubr
          -30 vhcurveto
          -68 vlineto
          -22 callgsubr
          142 81 77 119 5 0 9 -1 11 vhcurveto
          -195 -13 hlineto
          -18 -9 -17 -22 -22 -9 18 19 vhcurveto
          68 347 vlineto
          -62 44 85 -10 51 hhcurveto
          -53 callgsubr
        </CharString>
        <CharString name="dvK_S_P_LA">
          1728 -67 callsubr
          772 306 rmoveto
          51 112 -136 -123 vlineto
          -36 callsubr
          390 -213 60 callsubr
          -321 -120 rmoveto
          5 0 9 -1 11 vhcurveto
          -195 -13 hlineto
          -18 -9 -17 -22 -22 -9 18 19 vhcurveto
          68 329 vlineto
          -80 37 76 -53 112 hhcurveto
          37 33 6 12 28 hvcurveto
          -91 37 86 -58 129 hhcurveto
          7 12 0 1 16 hvcurveto
          -84 callgsubr
          -2431 -170 395 -109 vlineto
          -94 callgsubr
          -30 vhcurveto
          -68 vlineto
          -22 callgsubr
          142 81 77 119 vhcurveto
          endchar
        </CharString>
        <CharString name="dvK_S_P_RA">
          1152 -67 callsubr
          771 306 125 callgsubr
          -1856 -170 395 -109 vlineto
          -94 callgsubr
          -30 vhcurveto
          -68 vlineto
          8 callsubr
          329 vlineto
          25 -53 41 -39 57 -19 15 callgsubr
        </CharString>
        <CharString name="dvK_S_TA">
          1194 -67 callsubr
          771 306 rmoveto
          51 519 298 callsubr
          -72 -68 -17 -36 -51 hvcurveto
          -218 10 callsubr
          800 222 callsubr
          -1898 -170 395 -109 vlineto
          -94 callgsubr
          -30 vhcurveto
          -68 vlineto
          8 callsubr
          304 vlineto
          -1 -8 0 -9 -9 8 callgsubr
        </CharString>
        <CharString name="dvK_S_TTA">
          1121 -67 callsubr
          771 306 179 callsubr
          -1824 -170 395 -109 vlineto
          -94 callgsubr
          -30 vhcurveto
          -68 vlineto
          8 callsubr
          303 vlineto
          -1 0 -1 -2 vvcurveto
          -158 -85 callgsubr
          endchar
        </CharString>
        <CharString name="dvK_TA">
          403 1096 -64 callgsubr
          -1107 -169 531 -84 -479 -171 116 vlineto
          -14 -27 -8 -33 -39 146 callgsubr
          29 53 hvcurveto
          93 -313 197 251 hlineto
          43 22 29 40 40 17 -31 -30 -36 -23 -22 -32 -7 -6 1 1 -3 vhcurveto
          -158 vlineto
          -7 27 21 -2 24 hhcurveto
          119 87 83 144 123 -67 108 -132 -55 -44 -19 -33 -28 hvcurveto
          126 vlineto
          endchar
        </CharString>
        <CharString name="dvK_THA">
          778 316 88 callsubr
          389 289 rmoveto
          -54 -43 -19 -31 -28 hvcurveto
          118 315 0 vlineto
          3 7 5 2 9 hhcurveto
          18 12 -16 -21 -55 -42 -25 -72 -8 hvcurveto
          32 -28 -42 20 -57 hhcurveto
          690 -503 rmoveto
          567 76 173 -280 -296 vlineto
          -139 -81 -65 -99 -79 -32 36 29 -11 vhcurveto
          177 10 72 100 189 callgsubr
          -92 81 -128 -24 -23 248 callsubr
          -859 -169 395 -110 hlineto
          48 callgsubr
          -134 73 -101 129 -16 callsubr
          hvcurveto
          -100 196 267 vlineto
          46 21 27 38 30 17 -17 -22 7 vhcurveto
          -145 25 112 -84 150 hhcurveto
          105 182 callgsubr
        </CharString>
        <CharString name="dvK_TTA">
          615 169 callsubr
          380 -53 hlineto
          -57 -3 -48 -14 -39 -22 rrcurveto
          21 -29 -36 13 -46 207 callsubr
          -264 -247 -106 callgsubr
          992 357 -80 callsubr
          -1319 -89 callgsubr
          41 16 -31 -31 vhcurveto
          0 vlineto
          -4 0 -5 -4 vvcurveto
          -158 -85 callgsubr
          endchar
        </CharString>
        <CharString name="dvK_T_RA">
          691 169 callsubr
          527 -105 hlineto
          27 -38 -52 17 -61 hhcurveto
          -59 -50 -13 -24 -40 hvcurveto
          25 -28 -36 15 -43 hhcurveto
          -52 -41 -18 -32 -27 hvcurveto
          -264 -249 -106 callgsubr
          1067 357 -80 callsubr
          -1394 -89 callgsubr
          39 17 -29 -56 2 vhcurveto
          -1 0 -4 -4 vvcurveto
          204 hlineto
          69 47 35 62 28 28 -9 -14 20 vhcurveto
          131 callsubr
        </CharString>
        <CharString name="dvK_T_VA">
          1008 690 503 rmoveto
          -47 -38 -15 -27 -25 hvcurveto
          110 846 116 callsubr
          -46 -39 -10 -19 -32 hvcurveto
          -198 hlineto
          -66 -63 -14 -31 -50 hvcurveto
          37 -24 -38 23 -45 hhcurveto
          -374 -289 -106 callgsubr
          1033 -11 -71 callgsubr
          -1712 -169 395 -110 hlineto
          48 callgsubr
          -134 73 -101 129 -16 callsubr
          hvcurveto
          -100 196 267 vlineto
          46 21 26 38 41 13 -34 -56 -1 vhcurveto
          0 vlineto
          -2 0 -2 -2 vvcurveto
          -34 callsubr
          85 hlineto
          -1 -10 0 -10 -10 1 callsubr
          endchar
        </CharString>
        <CharString name="dvK_T_YA">
          1101 974 489 rmoveto
          -66 -62 -14 -31 -50 hvcurveto
          36 -25 -39 23 -51 hhcurveto
          -43 -34 -14 -25 -24 hvcurveto
          107 622 118 callgsubr
          -658 -275 -106 callgsubr
          1065 18 rmoveto
          -68 -40 34 41 -8 hvcurveto
          92 23 46 83 89 -53 callsubr
          -1806 -94 callsubr
          26 38 32 22 -30 -52 -1 vhcurveto
          0 vlineto
          -4 0 -4 -4 vvcurveto
          -177 93 callgsubr
          vhcurveto
          -20 callsubr
        </CharString>
        <CharString name="dvK_VA">
          634 580 -12 callsubr
          352 537 rmoveto
          -1339 118 callsubr
          1 hlineto
          -132 2 77 -105 142 hhcurveto
          10 callgsubr
          vlineto
          endchar
        </CharString>
        <CharString name="dvK_V_YA">
          1089 963 517 rmoveto
          -68 -55 -15 -27 -42 hvcurveto
          18 -25 -31 10 -38 hhcurveto
          -54 -42 -17 -31 -28 hvcurveto
          116 609 -32 vlineto
          -41 -5 -39 -32 -23 vhcurveto
          49 -40 -63 32 -86 hhcurveto
          -647 -303 41 callsubr
          38 30 -23 -32 7 hvcurveto
          1 -5 0 -4 1 -4 rrcurveto
          -4 vlineto
          -52 1 -34 -28 -44 hhcurveto
          392 29 rmoveto
          -63 -39 29 37 -11 hvcurveto
          105 27 31 85 90 vvcurveto
          71 111 86 callgsubr
          -1793 -89 callgsubr
          41 16 -31 -31 vhcurveto
          1 hlineto
          -132 3 94 -105 177 hhcurveto
          80 59 29 45 38 hvcurveto
          -34 45 59 -18 71 -52 callsubr
          vlineto
          endchar
        </CharString>
        <CharString name="dvK_YA">
          732 580 -23 callgsubr
          -1436 -94 callsubr
          26 38 1 vhcurveto
          34 15 -22 -21 6 hvcurveto
          -143 16 97 -91 159 -76 callsubr
        </CharString>
        <CharString name="dvKx">
          67 callgsubr
          -53 50 callsubr
          endchar
        </CharString>
        <CharString name="dvKxA">
          264 580 -70 callgsubr
          -968 -98 callsubr
          vlineto
          -53 50 callsubr
          endchar
        </CharString>
        <CharString name="dvKx_BA">
          659 169 callsubr
          500 -82 hlineto
          24 -39 -48 11 -53 hhcurveto
          -55 -48 -15 -25 -40 hvcurveto
          18 -24 -30 11 -38 207 callsubr
          696 -461 rmoveto
          -6 callsubr
          -1363 -89 callgsubr
          41 16 -31 -31 vhcurveto
          0 vlineto
          -140 5 100 -99 139 hhcurveto
          239 callsubr
          -749 50 callsubr
          668 181 -2 callgsubr
        </CharString>
        <CharString name="dvKx_KxA">
          237 callsubr
          -44 -37 -10 -18 -30 hvcurveto
          18 -24 -30 10 -37 207 callsubr
          -249 -576 rmoveto
          -100 callsubr
          655 hmoveto
          -100 callsubr
          -670 329 -106 callgsubr
          655 hmoveto
          -107 callgsubr
          264 12 callgsubr
          endchar
        </CharString>
        <CharString name="dvKx_MA">
          843 171 callsubr
          -374 -618 rmoveto
          64 -50 51 -64 -63 -50 -51 -64 -62 50 -50 63 64 50 50 62 vhcurveto
          -15 329 0 callsubr
        </CharString>
        <CharString name="dvKx_PHA">
          926 169 callsubr
          101 -69 hlineto
          -43 -4 -34 -16 -24 -25 rrcurveto
          376 -150 -36 callgsubr
          -1630 127 callgsubr
          -16 -20 6 vhcurveto
          -98 25 72 -70 114 hhcurveto
          55 43 16 27 30 hvcurveto
          -179 -106 callsubr
          -903 -686 133 callgsubr
          endchar
        </CharString>
        <CharString name="dvKx_PHxA">
          927 169 callsubr
          102 -69 hlineto
          -44 -4 -34 -15 -24 -26 rrcurveto
          -249 -572 rmoveto
          -100 callsubr
          614 100 rmoveto
          -100 callsubr
          -629 229 -106 callgsubr
          641 93 -36 callgsubr
          -1631 -89 callgsubr
          30 17 -17 -21 6 vhcurveto
          1 hlineto
          -98 25 72 -68 113 hhcurveto
          55 43 16 27 30 hvcurveto
          -179 -106 callsubr
          endchar
        </CharString>
        <CharString name="dvKx_R">
          92 249 callsubr
          hvcurveto
          289 callgsubr
          -133 206 callgsubr
          325 169 -1012 43 callsubr
        </CharString>
        <CharString name="dvKx_RA">
          361 249 callsubr
          -35 -23 -22 -31 -6 -6 1 1 -4 hvcurveto
          -158 vlineto
          -7 28 20 -2 24 hhcurveto
          119 86 83 144 123 -66 107 -133 -55 289 callsubr
          110 378 169 -1065 43 callsubr
        </CharString>
        <CharString name="dvKx_TA">
          684 169 callsubr
          516 -83 -121 hlineto
          -54 -51 -9 -20 -45 hvcurveto
          27 -30 -42 17 -53 hhcurveto
          -52 -41 -16 -29 -27 hvcurveto
          -249 -573 133 callgsubr
          1061 357 -80 callsubr
          -1388 -94 callsubr
          26 38 30 21 -27 -45 2 vhcurveto
          -1 -8 0 -8 -8 8 callgsubr
        </CharString>
        <CharString name="dvL">
          -60 458 418 rmoveto
          -99 callsubr
          -44 vhcurveto
          207 3 rlineto
          176 -121 72 -118 -91 297 callsubr
          vhcurveto
          417 153 -80 callsubr
          -889 250 callsubr
        </CharString>
        <CharString name="dvLA">
          238 606 5 rmoveto
          -62 callsubr
          -942 -169 582 -67 vlineto
          -52 -14 -35 -31 -23 -41 rrcurveto
          -100 callgsubr
          -44 -54 -34 -26 -40 -5 -12 1 1 -9 vhcurveto
          -177 vlineto
          -1 16 12 0 7 hhcurveto
          endchar
        </CharString>
        <CharString name="dvLL">
          256 466 127 rmoveto
          6 hlineto
          -70 40 73 -31 78 hhcurveto
          126 107 88 149 146 -106 90 -127 -65 -74 -17 -83 -53 hvcurveto
          35 callgsubr
          -225 135 -11 callgsubr
          381 308 -80 callsubr
          -960 250 callsubr
        </CharString>
        <CharString name="dvLLA">
          256 241 262 -11 callgsubr
          95 -237 rmoveto
          126 107 88 149 95 -45 71 -66 38 hvcurveto
          112 callsubr
          -70 40 73 -31 78 hhcurveto
          endchar
        </CharString>
        <CharString name="dvLL_R">
          256 466 127 rmoveto
          6 hlineto
          12 -22 16 -18 18 -14 -117 -157 rcurveline
          63 callgsubr
          -122 164 rlineto
          48 40 31 63 80 vvcurveto
          146 -106 90 -127 -65 -74 -17 -83 -53 vhcurveto
          35 callgsubr
          -225 135 -11 callgsubr
          381 308 -80 callsubr
          -960 250 callsubr
        </CharString>
        <CharString name="dvLL_RA">
          256 241 262 -11 callgsubr
          166 -347 rmoveto
          205 hlineto
          -122 164 rlineto
          48 40 31 63 80 vvcurveto
          95 -45 71 -66 38 vhcurveto
          112 callsubr
          12 -22 16 -18 18 -14 -117 -157 rcurveline
          204 hlineto
          65 98 rlineto
          endchar
        </CharString>
</ttFont>
